<?xml version="1.0" encoding="UTF-8"?>
<svg version="1.1" xmlns="http://www.w3.org/2000/svg" width="500" height="500">
<path d="M0 0 C165 0 330 0 500 0 C500 165 500 330 500 500 C335 500 170 500 0 500 C0 335 0 170 0 0 Z " fill="#000001" transform="translate(0,0)"/>
<path d="M0 0 C1.85019328 0.45572607 3.70714486 0.8837682 5.56445312 1.30957031 C10.82197608 2.53977889 15.15174129 4.0719644 19.98632812 6.48925781 C23.29626028 7.30169571 26.6259744 7.92477151 29.98632812 8.48925781 C29.98632812 9.14925781 29.98632812 9.80925781 29.98632812 10.48925781 C30.77652344 10.57175781 31.56671875 10.65425781 32.38085938 10.73925781 C37.10822626 11.72263207 41.26329967 13.55901888 45.67382812 15.48925781 C47.36486699 16.2192761 49.05625852 16.94847814 50.74804688 17.67675781 C51.49014404 18.0003125 52.23224121 18.32386719 52.99682617 18.65722656 C54.63137821 19.34081392 56.30551082 19.92898538 57.98632812 20.48925781 C57.98632812 21.14925781 57.98632812 21.80925781 57.98632812 22.48925781 C58.97632813 22.48925781 59.96632813 22.48925781 60.98632812 22.48925781 C60.98632812 23.14925781 60.98632812 23.80925781 60.98632812 24.48925781 C61.50195312 24.59238281 62.01757812 24.69550781 62.54882812 24.80175781 C65.84659247 25.73189647 68.85266144 27.10321293 71.98632812 28.48925781 C71.98632812 29.14925781 71.98632812 29.80925781 71.98632812 30.48925781 C72.66695313 30.73675781 73.34757812 30.98425781 74.04882812 31.23925781 C77.55497896 32.73123689 80.70253181 34.55761292 83.98632812 36.48925781 C83.98632812 37.14925781 83.98632812 37.80925781 83.98632812 38.48925781 C84.57583252 38.76705078 85.16533691 39.04484375 85.77270508 39.33105469 C89.22497434 41.1373374 92.12814215 43.57640116 95.17382812 45.98925781 C95.81513672 46.488125 96.45644531 46.98699219 97.1171875 47.50097656 C101.86043663 51.23747482 101.86043663 51.23747482 102.98632812 53.48925781 C103.97632813 53.81925781 104.96632813 54.14925781 105.98632812 54.48925781 C105.98632812 55.14925781 105.98632812 55.80925781 105.98632812 56.48925781 C106.97632813 56.81925781 107.96632813 57.14925781 108.98632812 57.48925781 C108.98632812 58.14925781 108.98632812 58.80925781 108.98632812 59.48925781 C109.97632813 59.81925781 110.96632813 60.14925781 111.98632812 60.48925781 C113.52148438 62.30175781 113.52148438 62.30175781 115.04882812 64.48925781 C117.06586665 67.50553965 117.06586665 67.50553965 119.98632812 69.48925781 C120.90611319 71.09036515 121.82079618 72.69462789 122.70898438 74.31347656 C124.7370179 77.76795568 127.08017247 80.99239265 129.40039062 84.25488281 C132.98632812 89.3069918 132.98632812 89.3069918 132.98632812 93.48925781 C133.64632813 93.48925781 134.30632812 93.48925781 134.98632812 93.48925781 C142.0328315 110.89412114 142.0328315 110.89412114 144.98632812 119.48925781 C145.39882813 120.66617188 145.81132812 121.84308594 146.23632812 123.05566406 C148.61381302 130.06430749 150.42624664 137.0133661 151.55200195 144.33178711 C151.67928334 145.15263888 151.80656473 145.97349066 151.93770313 146.81921673 C153.25142513 155.68663793 153.85890694 164.56533914 154.37304688 173.50878906 C154.48025144 175.26742716 154.58807981 177.02602733 154.69648743 178.78459167 C154.91976096 182.43883734 155.13677807 186.09338015 155.34887695 189.74829102 C155.61708567 194.36438426 155.89943876 198.97948065 156.18595695 203.59446907 C159.40584093 255.6502322 159.40584093 255.6502322 156.98632812 260.48925781 C156.32632812 260.48925781 155.66632813 260.48925781 154.98632812 260.48925781 C154.32632812 261.80925781 153.66632813 263.12925781 152.98632812 264.48925781 C147.28180953 262.78791016 141.978128 260.61769342 136.61132812 258.05175781 C127.23426115 253.58825998 117.70983312 250.31989268 107.73632812 247.41894531 C104.98632813 246.48925781 104.98632813 246.48925781 101.98632812 244.48925781 C100.1342525 244.01839113 98.28107977 243.54797297 96.41210938 243.14941406 C93.98632813 242.48925781 93.98632813 242.48925781 90.28710938 241.05175781 C85.89292581 239.37245525 81.46156162 238.36930144 76.86132812 237.42675781 C75.31640711 237.10565152 73.77211709 236.78149233 72.22851562 236.45410156 C71.55675293 236.31609131 70.88499023 236.17808105 70.19287109 236.03588867 C67.98632813 235.48925781 67.98632813 235.48925781 65.13989258 234.51660156 C61.86838066 233.4508338 58.66440593 232.74034701 55.28710938 232.08691406 C54.00505615 231.83780273 52.72300293 231.58869141 51.40209961 231.33203125 C50.03444232 231.07141545 48.6666829 230.81133511 47.29882812 230.55175781 C46.60314728 230.41886353 45.90746643 230.28596924 45.19070435 230.14904785 C11.7388536 223.76627097 -21.21423616 221.27099502 -55.26367188 221.30175781 C-56.40031281 221.30202972 -57.53695374 221.30230164 -58.70803833 221.30258179 C-89.98984828 221.3368751 -120.29160746 223.46783703 -151.01367188 229.52050781 C-154.88872991 230.2812554 -158.77013153 230.97592532 -162.66381836 231.63378906 C-169.21796676 232.74329262 -175.71980475 234.01021265 -182.20117188 235.48925781 C-182.89629883 235.64330078 -183.59142578 235.79734375 -184.30761719 235.95605469 C-188.57800636 236.96158843 -192.11386748 238.52640806 -196.01367188 240.48925781 C-198.28977297 241.11175775 -200.58430074 241.66880503 -202.88867188 242.17675781 C-218.76354471 245.91090246 -234.4358916 251.16107447 -249.01367188 258.48925781 C-251.36168614 259.64764623 -253.71591525 260.79352201 -256.07617188 261.92675781 C-257.11902344 262.44109375 -258.161875 262.95542969 -259.23632812 263.48535156 C-262.14295528 264.53598895 -263.219423 264.68499494 -266.01367188 263.48925781 C-268.70461436 261.39630255 -269.39633943 259.78544911 -270.01367188 256.48925781 C-270.53902361 245.59832819 -269.65080216 234.66282588 -268.95507812 223.79785156 C-268.84509076 222.03623685 -268.73539058 220.27460418 -268.6259613 218.51295471 C-268.39753868 214.85114778 -268.16610546 211.18954791 -267.93237305 207.52807617 C-267.63337386 202.84126393 -267.34140123 198.15404509 -267.0515604 193.46665859 C-266.82677256 189.8419635 -266.5986401 186.21748501 -266.36945915 182.59306526 C-266.26046461 180.86399372 -266.15242811 179.1348615 -266.04538155 177.40566826 C-265.89566503 174.99637449 -265.74152264 172.5874036 -265.58618164 170.1784668 C-265.54302322 169.47037872 -265.49986481 168.76229065 -265.45539856 168.03274536 C-265.21875922 164.43908019 -264.79264074 161.00447353 -264.01367188 157.48925781 C-263.82258422 155.80695663 -263.6567892 154.12162964 -263.51367188 152.43457031 C-263.43117188 151.4896875 -263.34867187 150.54480469 -263.26367188 149.57128906 C-263.13992188 148.10755859 -263.13992188 148.10755859 -263.01367188 146.61425781 C-261.52135409 129.10284132 -261.52135409 129.10284132 -259.20117188 123.67675781 C-258.84410156 122.82726562 -258.48703125 121.97777344 -258.11914062 121.10253906 C-257.75433594 120.24015625 -257.38953125 119.37777344 -257.01367188 118.48925781 C-256.3446548 116.78184358 -255.67794815 115.07352206 -255.01367188 113.36425781 C-253.50931325 109.59151591 -251.83079888 105.97147083 -249.94335938 102.37597656 C-248.95374331 100.43612808 -248.95374331 100.43612808 -248.09179688 98.12207031 C-246.88526982 95.17569627 -245.43167205 92.46086682 -243.88867188 89.67675781 C-243.34984375 88.7009375 -242.81101562 87.72511719 -242.25585938 86.71972656 C-241.8459375 85.98367187 -241.43601562 85.24761719 -241.01367188 84.48925781 C-240.35367188 84.48925781 -239.69367188 84.48925781 -239.01367188 84.48925781 C-239.01367188 83.16925781 -239.01367188 81.84925781 -239.01367188 80.48925781 C-238.35367188 80.48925781 -237.69367188 80.48925781 -237.01367188 80.48925781 C-236.74941406 79.93882812 -236.48515625 79.38839844 -236.21289062 78.82128906 C-232.1982887 71.01439217 -227.45607624 64.42081073 -221.01367188 58.48925781 C-219.83804688 57.30976563 -219.83804688 57.30976563 -218.63867188 56.10644531 C-200.96889576 38.48925781 -200.96889576 38.48925781 -196.01367188 38.48925781 C-196.01367188 37.82925781 -196.01367188 37.16925781 -196.01367188 36.48925781 C-186.52980091 29.48925781 -186.52980091 29.48925781 -182.01367188 29.48925781 C-182.01367188 28.82925781 -182.01367188 28.16925781 -182.01367188 27.48925781 C-169.7503131 20.48925781 -169.7503131 20.48925781 -164.01367188 20.48925781 C-164.01367188 19.82925781 -164.01367188 19.16925781 -164.01367188 18.48925781 C-162.76906405 17.81257783 -161.51770291 17.14831062 -160.26367188 16.48925781 C-159.21953125 15.93238281 -159.21953125 15.93238281 -158.15429688 15.36425781 C-156.01367188 14.48925781 -156.01367188 14.48925781 -152.01367188 14.48925781 C-152.01367188 13.82925781 -152.01367188 13.16925781 -152.01367188 12.48925781 C-151.2634375 12.24691406 -150.51320313 12.00457031 -149.74023438 11.75488281 C-148.71671875 11.41972656 -147.69320312 11.08457031 -146.63867188 10.73925781 C-145.6409375 10.41441406 -144.64320313 10.08957031 -143.61523438 9.75488281 C-140.7959856 8.76417066 -138.08621894 7.68930372 -135.33398438 6.53613281 C-95.04871078 -9.68683531 -41.93619709 -10.39594802 0 0 Z " fill="#1B4C77" transform="translate(306.013671875,77.5107421875)"/>
<path d="M0 0 C2.40008828 0.35952551 4.80238239 0.69535588 7.20654297 1.02636719 C20.15153786 2.87269521 32.85618672 5.77605928 45.59204102 8.70947266 C48.13684651 9.28987061 50.68550512 9.84346384 53.23779297 10.38964844 C57.87947244 11.41872987 62.4136433 12.74402058 66.96044922 14.12792969 C68.24338867 14.51501099 68.24338867 14.51501099 69.55224609 14.90991211 C76.33713315 16.97495914 83.07271722 19.17549794 89.78637695 21.4609375 C93.01251372 22.55757782 96.20978673 23.5838471 99.52294922 24.37792969 C99.52294922 25.03792969 99.52294922 25.69792969 99.52294922 26.37792969 C100.66763672 26.64347656 101.81232422 26.90902344 102.99169922 27.18261719 C107.47124236 28.30250297 111.7212916 29.83802887 116.02294922 31.50292969 C116.74998047 31.78007812 117.47701172 32.05722656 118.22607422 32.34277344 C119.99325609 33.01709284 121.75833288 33.69692484 123.52294922 34.37792969 C123.52294922 35.03792969 123.52294922 35.69792969 123.52294922 36.37792969 C124.45107422 36.50167969 125.37919922 36.62542969 126.33544922 36.75292969 C129.52294922 37.37792969 129.52294922 37.37792969 132.52294922 39.37792969 C134.33088446 43.7530043 135.13783181 48.2303737 135.96044922 52.87792969 C136.21827455 54.29613343 136.47741525 55.71409859 136.73779297 57.13183594 C136.86782715 57.84098145 136.99786133 58.55012695 137.13183594 59.28076172 C139.06677937 69.82270052 139.06677937 69.82270052 142.14794922 80.06542969 C143.6199446 84.19921982 143.98133165 88.13300442 144.27294922 92.49511719 C144.53250799 95.48815429 145.03056866 98.36377339 145.58544922 101.31542969 C147.4711633 112.44258223 147.39346399 121.66504763 141.23779297 131.41308594 C136.97448782 137.00644729 131.70874753 139.80201134 124.76904297 140.75683594 C116.55490357 141.09590161 109.23853418 138.93457323 101.52294922 136.37792969 C101.52294922 135.71792969 101.52294922 135.05792969 101.52294922 134.37792969 C100.64380859 134.10207031 99.76466797 133.82621094 98.85888672 133.54199219 C95.78810572 132.47045502 93.03766369 131.23504685 90.14794922 129.75292969 C89.11412109 129.22828125 88.08029297 128.70363281 87.01513672 128.16308594 C85.86271484 127.57398438 84.71029297 126.98488281 83.52294922 126.37792969 C80.77598052 124.97604241 78.02529214 123.58173099 75.27294922 122.19042969 C74.62406738 121.85769043 73.97518555 121.52495117 73.30664062 121.18212891 C68.80885159 118.90983812 64.26670851 117.08041219 59.52294922 115.37792969 C59.52294922 114.71792969 59.52294922 114.05792969 59.52294922 113.37792969 C58.40919922 113.13042969 57.29544922 112.88292969 56.14794922 112.62792969 C50.16067535 111.12585923 44.54938075 108.72755456 38.92138672 106.21777344 C30.89960373 102.70400652 22.6920206 100.23776259 14.30029297 97.79199219 C10.52470544 96.68877925 6.80113656 95.48327176 3.08544922 94.19042969 C-10.68442114 89.52985818 -25.92114846 86.50987515 -40.43798828 85.58886719 C-42.47705078 85.37792969 -42.47705078 85.37792969 -44.47705078 84.37792969 C-65.48988012 81.63270521 -87.24313331 82.79270444 -108.22705078 85.19042969 C-109.34098206 85.31458755 -109.34098206 85.31458755 -110.47741699 85.44125366 C-117.98722671 86.29515302 -125.21509523 87.32954244 -132.42041016 89.7199707 C-135.19439865 90.6074231 -137.97141089 91.04270059 -140.85205078 91.44042969 C-144.507931 91.94685109 -147.24143572 92.61179439 -150.47705078 94.37792969 C-153.67918514 95.39988746 -156.81696939 96.25001451 -160.11767578 96.88964844 C-169.09556404 98.6967362 -177.17365305 101.91105146 -185.61376953 105.40136719 C-189.61213944 107.05035544 -193.62785658 108.50060043 -197.72705078 109.87792969 C-205.03013297 112.42971252 -211.78346207 115.86591634 -218.63427734 119.42431641 C-221.23475249 120.77003128 -223.85533385 122.07417614 -226.47705078 123.37792969 C-227.89050781 124.085625 -227.89050781 124.085625 -229.33251953 124.80761719 C-231.72901488 126.00437635 -234.12759494 127.19653127 -236.52783203 128.38574219 C-237.23359375 128.73636719 -237.93935547 129.08699219 -238.66650391 129.44824219 C-240.03806742 130.12960769 -241.4104106 130.80940701 -242.78369141 131.48730469 C-245.96289743 133.06887128 -249.07848634 134.70375141 -252.14501953 136.49511719 C-257.91140729 139.75349808 -262.23201199 140.71936342 -268.85205078 140.69042969 C-269.94646484 140.71459961 -269.94646484 140.71459961 -271.06298828 140.73925781 C-276.25483433 140.74389339 -279.83343602 139.69973707 -284.47705078 137.37792969 C-284.47705078 136.71792969 -284.47705078 136.05792969 -284.47705078 135.37792969 C-285.38583984 134.99894531 -285.38583984 134.99894531 -286.31298828 134.61230469 C-290.70225934 132.10867715 -292.67563645 127.05708353 -294.78955078 122.62792969 C-296.74167302 113.39971546 -295.17902234 104.32557106 -293.16455078 95.25292969 C-292.70114999 93.06725258 -292.24022939 90.88104822 -291.78173828 88.69433594 C-291.55711914 87.62844238 -291.3325 86.56254883 -291.10107422 85.46435547 C-290.06638322 80.34676408 -289.24110138 75.19826789 -288.46606445 70.03564453 C-287.83232431 65.96251812 -286.80076484 62.27270375 -285.47705078 58.37792969 C-284.92182584 55.84355362 -284.40223887 53.30116381 -283.91455078 50.75292969 C-282.36621013 42.71439431 -282.36621013 42.71439431 -281.47705078 39.37792969 C-280.48705078 39.37792969 -279.49705078 39.37792969 -278.47705078 39.37792969 C-278.47705078 38.71792969 -278.47705078 38.05792969 -278.47705078 37.37792969 C-271.23259047 33.54250858 -263.86085606 30.49473211 -256.16455078 27.69042969 C-254.06415384 26.91606031 -251.96388855 26.14133373 -249.86376953 25.36621094 C-248.94813232 25.03145752 -248.03249512 24.6967041 -247.08911133 24.35180664 C-245.31751704 23.69128794 -243.55963581 22.99300092 -241.81616211 22.26147461 C-239.22150732 21.28140408 -237.22746688 21.22076305 -234.47705078 21.37792969 C-234.47705078 20.71792969 -234.47705078 20.05792969 -234.47705078 19.37792969 C-233.9153418 19.22759277 -233.35363281 19.07725586 -232.77490234 18.92236328 C-230.09146133 18.20224311 -227.40910756 17.47818882 -224.72705078 16.75292969 C-223.73801758 16.48585205 -222.74898438 16.21877441 -221.72998047 15.94360352 C-216.76823525 14.59172948 -211.82704606 13.20063162 -206.91455078 11.67871094 C-206.04024414 11.40816895 -205.1659375 11.13762695 -204.26513672 10.85888672 C-202.62510118 10.34617842 -200.9875089 9.82555771 -199.35302734 9.29541016 C-194.56951346 7.80018089 -190.11585457 7.09334373 -185.12768555 6.69726562 C-181.17055622 6.2205294 -177.40552726 5.15261337 -173.55664062 4.14013672 C-168.51676034 2.89275236 -163.41790866 2.1047491 -158.28955078 1.31542969 C-157.21036377 1.14551514 -156.13117676 0.97560059 -155.01928711 0.80053711 C-147.26641182 -0.39988207 -139.50880906 -1.40351342 -131.70751953 -2.22753906 C-128.68616141 -2.51597168 -128.68616141 -2.51597168 -126.64916992 -3.12695312 C-121.48336347 -4.3044574 -116.0086391 -4.0334377 -110.72705078 -4.18457031 C-109.68629395 -4.21534164 -109.68629395 -4.21534164 -108.62451172 -4.24673462 C-72.31758162 -5.2929031 -36.00447769 -5.41571531 0 0 Z " fill="#1B4D77" transform="translate(324.47705078125,314.6220703125)"/>
<path d="M0 0 C7.71375 -0.04125 15.4275 -0.0825 23.375 -0.125 C26.99734619 -0.15231201 26.99734619 -0.15231201 30.69287109 -0.18017578 C32.63639098 -0.18602452 34.57991334 -0.19111917 36.5234375 -0.1953125 C37.50868408 -0.20554443 38.49393066 -0.21577637 39.5090332 -0.22631836 C50.56909995 -0.22906484 61.42886755 1.34289726 70.078125 8.7890625 C77.59891954 16.72065674 78.52456136 24.71535263 78.2890625 35.3984375 C77.73314979 42.32480942 76.0160402 47.9839598 71 53 C70.34 53 69.68 53 69 53 C68.67 53.99 68.34 54.98 68 56 C65.9375 56.6875 65.9375 56.6875 64 57 C64 57.66 64 58.32 64 59 C57.90819878 62.2584053 53.26093179 63.12904535 46.38671875 63.09765625 C45.13955078 63.09443359 43.89238281 63.09121094 42.60742188 63.08789062 C41.31384766 63.07951172 40.02027344 63.07113281 38.6875 63.0625 C36.71813477 63.05573242 36.71813477 63.05573242 34.70898438 63.04882812 C31.47263672 63.03705959 28.23631255 63.01912463 25 63 C25 70.92 25 78.84 25 87 C16.75 87 8.5 87 0 87 C0 58.29 0 29.58 0 0 Z " fill="#010204" transform="translate(308,170)"/>
<path d="M0 0 C2.39132668 0.03985544 4.78228961 0.11137144 7.171875 0.2109375 C8.39390625 0.23800781 9.6159375 0.26507813 10.875 0.29296875 C13.89240241 0.36368912 16.9062507 0.46234634 19.921875 0.5859375 C20.42418721 1.84388886 20.91878292 3.10492309 21.41015625 4.3671875 C21.68641846 5.06908203 21.96268066 5.77097656 22.24731445 6.49414062 C23.13395609 9.24359613 23.13662803 11.72256371 22.921875 14.5859375 C23.581875 14.5859375 24.241875 14.5859375 24.921875 14.5859375 C27.83554108 20.19744254 30.32874463 25.88246711 32.67578125 31.75390625 C33.89648224 34.52822669 35.35021507 36.99933642 36.921875 39.5859375 C37.64594609 41.46193988 38.36613885 43.33972058 39.05078125 45.23046875 C42.67150062 55.02102381 47.21315462 64.28305182 51.93359375 73.578125 C54.26682715 78.51775084 54.25786069 81.60980874 54.921875 87.5859375 C47.001875 87.5859375 39.081875 87.5859375 30.921875 87.5859375 C29.931875 83.9559375 28.941875 80.3259375 27.921875 76.5859375 C27.261875 76.5859375 26.601875 76.5859375 25.921875 76.5859375 C25.591875 74.9359375 25.261875 73.2859375 24.921875 71.5859375 C12.381875 71.9159375 -0.158125 72.2459375 -13.078125 72.5859375 C-16.2622643 80.01699023 -16.2622643 80.01699023 -19.078125 87.5859375 C-27.328125 87.5859375 -35.578125 87.5859375 -44.078125 87.5859375 C-42.03106758 81.22543765 -39.96338794 75.02920552 -37.16015625 68.96484375 C-35.00537178 64.22742951 -33.06402123 59.3960386 -31.078125 54.5859375 C-30.418125 54.5859375 -29.758125 54.5859375 -29.078125 54.5859375 C-28.418125 52.6059375 -27.758125 50.6259375 -27.078125 48.5859375 C-26.418125 48.5859375 -25.758125 48.5859375 -25.078125 48.5859375 C-25.01625 47.5340625 -24.954375 46.4821875 -24.890625 45.3984375 C-23.91387106 37.54254508 -20.40005639 30.02337631 -16.828125 23.0234375 C-15.46986117 20.35541927 -14.700697 18.43109155 -14.078125 15.5859375 C-13.418125 15.5859375 -12.758125 15.5859375 -12.078125 15.5859375 C-11.98015625 15.00585938 -11.8821875 14.42578125 -11.78125 13.828125 C-11.63171875 13.04695312 -11.4821875 12.26578125 -11.328125 11.4609375 C-11.18890625 10.69523438 -11.0496875 9.92953125 -10.90625 9.140625 C-8.76529036 2.53596648 -7.08223522 0.23468379 0 0 Z " fill="#010204" transform="translate(243.078125,169.4140625)"/>
<path d="M0 0 C0.7425 0.495 1.485 0.99 2.25 1.5 C3.5803125 1.933125 3.5803125 1.933125 4.9375 2.375 C7.99404239 3.86196657 8.06637789 5.42258251 9.25 8.5 C11.22080157 9.24276031 11.22080157 9.24276031 13.25 9.5 C14.24 10.49 14.24 10.49 15.25 11.5 C15.06729815 14.28049379 14.41323632 15.33641188 12.4375 17.31640625 C11.715625 17.89261719 10.99375 18.46882813 10.25 19.0625 C6.93337666 21.67062598 6.93337666 21.67062598 5.25 25.5 C3 26.1875 3 26.1875 0.25 26.5 C-2.0625 25.1875 -2.0625 25.1875 -3.75 23.5 C-3.75 22.84 -3.75 22.18 -3.75 21.5 C-11.33324666 18.36210483 -18.56566173 17.52133353 -26.75 18.5 C-28.7802589 19.43704257 -30.78826922 20.42686797 -32.75 21.5 C-33.41 21.5 -34.07 21.5 -34.75 21.5 C-34.75 22.16 -34.75 22.82 -34.75 23.5 C-35.41 23.5 -36.07 23.5 -36.75 23.5 C-37.08 24.49 -37.41 25.48 -37.75 26.5 C-38.41 26.5 -39.07 26.5 -39.75 26.5 C-43.3129827 36.46786827 -44.27551348 44.45412816 -39.890625 54.3046875 C-37.4861061 58.93256292 -34.20457402 63.36722108 -29.0703125 65.05078125 C-21.22300394 66.57004132 -13.01417623 66.88303119 -6.0625 62.625 C-4.61843383 61.59245528 -3.18026183 60.55158299 -1.75 59.5 C-0.43103883 58.80533198 0.89828571 58.1285624 2.25 57.5 C2.76949219 57.97050781 3.28898437 58.44101563 3.82421875 58.92578125 C8.23959591 62.90837242 8.23959591 62.90837242 13.25 66.0625 C15.25 67.5 15.25 67.5 15.9375 70.375 C15.01237152 74.58012943 12.69460099 76.25092213 9.25 78.5 C5.70034416 80.75346661 2.13135124 82.51107079 -1.75 84.125 C-2.760625 84.55039062 -3.77125 84.97578125 -4.8125 85.4140625 C-17.32444285 90.03948818 -32.41177853 88.23782342 -44.375 82.875 C-51.15639705 78.5429036 -57.98511307 72.68751142 -61.75 65.5 C-61.75 64.51 -61.75 63.52 -61.75 62.5 C-62.41 62.5 -63.07 62.5 -63.75 62.5 C-66.61364986 56.05299992 -67.22745443 50.70502559 -67.125 43.6875 C-67.11774902 42.7171582 -67.11049805 41.74681641 -67.10302734 40.74707031 C-66.78999173 24.53999173 -66.78999173 24.53999173 -61.75 19.5 C-61.30333984 18.33404297 -61.30333984 18.33404297 -60.84765625 17.14453125 C-56.5063676 6.68526997 -45.3247801 2.37775523 -35.62182617 -1.79492188 C-25.49307768 -5.61021151 -9.45941039 -5.15967839 0 0 Z " fill="#010205" transform="translate(180.75,171.5)"/>
<path d="M0 0 C2.990625 -0.0825 5.98125 -0.165 9.0625 -0.25 C9.99070557 -0.28641602 10.91891113 -0.32283203 11.87524414 -0.36035156 C17.76444168 -0.43837918 21.22999835 0.47792707 26 4 C26.33 4.99 26.66 5.98 27 7 C27.66 7 28.32 7 29 7 C30.06637546 17.46063543 30.06637546 17.46063543 27.546875 21.09765625 C23.45732385 24.59439432 19.9730524 26.13404733 14.55078125 26.09765625 C13.78677002 26.09515869 13.02275879 26.09266113 12.2355957 26.09008789 C11.27097412 26.08098389 10.30635254 26.07187988 9.3125 26.0625 C4.7028125 26.0315625 4.7028125 26.0315625 0 26 C0 17.42 0 8.84 0 0 Z " fill="#1A4972" transform="translate(333,189)"/>
<path d="M0 0 C0.66 0 1.32 0 2 0 C5.94756559 9.2254067 9.65618336 18.21111874 12 28 C4.74 28 -2.52 28 -10 28 C-9.67 25.69 -9.34 23.38 -9 21 C-8.34 21 -7.68 21 -7 21 C-6.731875 19.88625 -6.46375 18.7725 -6.1875 17.625 C-5.3504344 14.29454751 -4.45429049 10.98634174 -3.5 7.6875 C-3.2628125 6.86636719 -3.025625 6.04523438 -2.78125 5.19921875 C-2 3 -2 3 0 0 Z " fill="#1A4972" transform="translate(248,195)"/>
<path d="M0 0 C0.33 0.33 0.66 0.66 1 1 C2.55944897 1.15858803 4.1230879 1.27678579 5.6875 1.375 C10.05293396 1.75705376 13.20183121 2.70110836 17 5 C13.99179682 5.93493085 11.9685392 6.00532154 8.90234375 5.328125 C8.11102051 5.15974121 7.31969727 4.99135742 6.50439453 4.81787109 C5.23378174 4.5367749 5.23378174 4.5367749 3.9375 4.25 C2.12168194 3.86957739 0.30525788 3.49203747 -1.51171875 3.1171875 C-2.43130371 2.92737305 -3.35088867 2.73755859 -4.29833984 2.54199219 C-15.09964297 0.37509422 -25.9713485 -1.1040336 -36.9375 -2.125 C-37.74558105 -2.20057129 -38.55366211 -2.27614258 -39.38623047 -2.35400391 C-57.32635701 -3.89630471 -75.25351434 -4.1658009 -93.25 -4.125 C-94.9444928 -4.12367065 -94.9444928 -4.12367065 -96.67321777 -4.12231445 C-115.1310106 -4.10535736 -133.55932492 -3.80139781 -152 -3 C-152 -3.66 -152 -4.32 -152 -5 C-102.23234303 -9.41804723 -49.24026129 -9.68965319 0 0 Z " fill="#1B3D59" transform="translate(344,303)"/>
<path d="M0 0 C0.33 0 0.66 0 1 0 C1.66011167 10.31100804 2.31254039 20.62247281 2.95575714 30.93454933 C3.2548116 35.72532155 3.55629213 40.51591275 3.86376953 45.30615234 C7.44133451 101.11733097 7.44133451 101.11733097 5 106 C4.34 106 3.68 106 3 106 C2.34 107.32 1.68 108.64 1 110 C-1.97 109.01 -4.94 108.02 -8 107 C-7.505 106.01 -7.505 106.01 -7 105 C-2.44615385 104.63076923 -2.44615385 104.63076923 -0.1875 106.5 C0.204375 106.995 0.59625 107.49 1 108 C1 106.68 1 105.36 1 104 C2.485 103.01 2.485 103.01 4 102 C4.4082851 99.75131086 4.4082851 99.75131086 4.25 97.0625 C4.22292969 95.99773437 4.19585937 94.93296875 4.16796875 93.8359375 C4.08482422 91.93714844 4.08482422 91.93714844 4 90 C3.9685791 89.23719727 3.9371582 88.47439453 3.90478516 87.68847656 C3.73194829 83.59719253 3.53938116 79.50683499 3.31640625 75.41796875 C3.27974854 74.73500732 3.24309082 74.0520459 3.20532227 73.34838867 C3.0418583 71.47875742 2.79231808 69.61670495 2.51367188 67.76074219 C1.95060145 63.63833872 1.67495204 59.56246068 1.46484375 55.41015625 C1.42177597 54.59602768 1.37870819 53.78189911 1.33433533 52.94309998 C1.19763581 50.31643732 1.06692482 47.68953055 0.9375 45.0625 C0.89264465 44.17159668 0.84778931 43.28069336 0.80157471 42.36279297 C0.09724693 28.22913376 -0.25889552 14.15295515 0 0 Z " fill="#1C3B56" transform="translate(458,232)"/>
<path d="M0 0 C0.98120464 3.05263664 0.98120464 4.94736336 0 8 C-0.66 8 -1.32 8 -2 8 C-2.66 9.98 -3.32 11.96 -4 14 C-4.66 14 -5.32 14 -6 14 C-6.226875 15.0725 -6.45375 16.145 -6.6875 17.25 C-8.14730424 23.08921696 -10.62212716 28.48765843 -13 34 C-13.94040244 36.24878845 -14.87801693 38.49874532 -15.8125 40.75 C-16.8953125 43.34875 -16.8953125 43.34875 -18 46 C-10.08 46.33 -2.16 46.66 6 47 C6.33 46.01 6.66 45.02 7 44 C7 45.32 7 46.64 7 48 C-1.91 48 -10.82 48 -20 48 C-20 44.7 -20 41.4 -20 38 C-21.485 38.495 -21.485 38.495 -23 39 C-25.1875 38.5625 -25.1875 38.5625 -27 38 C-26.360625 37.5875 -25.72125 37.175 -25.0625 36.75 C-22.79009069 34.82189513 -22.39803561 33.88575819 -22 31 C-21.34 31 -20.68 31 -20 31 C-19.67 31.66 -19.34 32.32 -19 33 C-17.68 33 -16.36 33 -15 33 C-14.97873047 32.11248047 -14.97873047 32.11248047 -14.95703125 31.20703125 C-14.68796457 26.74925085 -14.558287 24.62807288 -11.5 21.1875 C-10.675 20.465625 -9.85 19.74375 -9 19 C-8.13880866 16.82653432 -8.13880866 16.82653432 -8 15 C-8.66 14.67 -9.32 14.34 -10 14 C-9.67 12.35 -9.34 10.7 -9 9 C-8.67 10.32 -8.34 11.64 -8 13 C-7.01 13 -6.02 13 -5 13 C-4.67 10.36 -4.34 7.72 -4 5 C-3.01 4.67 -2.02 4.34 -1 4 C-0.26676204 1.98491642 -0.26676204 1.98491642 0 0 Z " fill="#1A3F5D" transform="translate(218,210)"/>
<path d="M0 0 C13.86 0 27.72 0 42 0 C42.495 1.485 42.495 1.485 43 3 C44.04800781 2.98839844 45.09601563 2.97679687 46.17578125 2.96484375 C47.55468572 2.95546345 48.93359211 2.9463635 50.3125 2.9375 C51.00279297 2.92912109 51.69308594 2.92074219 52.40429688 2.91210938 C55.5483025 2.89692094 57.99420019 2.99806673 61 4 C63.41247344 4.36243732 65.83004053 4.69147927 68.25 5 C73.17260261 5.63262363 78.08849067 6.28744942 83 7 C83.495 8.98 83.495 8.98 84 11 C76.74998591 9.90019746 69.5984941 8.5019387 62.4375 6.9375 C56.27019864 5.59501195 50.25242597 4.52080329 43.93359375 4.17578125 C42 4 42 4 40 3 C37.01426854 2.77247118 34.04492126 2.59829062 31.0546875 2.46484375 C30.1696756 2.42186661 29.2846637 2.37888947 28.37283325 2.33460999 C25.54040489 2.19803459 22.70772794 2.06769902 19.875 1.9375 C17.95701166 1.84611331 16.03904258 1.7543216 14.12109375 1.66210938 C9.41427319 1.43670246 4.70722031 1.21689204 0 1 C0 0.67 0 0.34 0 0 Z " fill="#1F415E" transform="translate(240,396)"/>
<path d="M0 0 C1.38226016 2.76452033 1.09525387 5.0461363 1.0625 8.125 C1.05347656 9.22070312 1.04445313 10.31640625 1.03515625 11.4453125 C1.02355469 12.28835937 1.01195312 13.13140625 1 14 C0.01 14 -0.98 14 -2 14 C-3.8758398 16.81375969 -4.30732829 17.77750598 -4.74609375 20.9375 C-4.85969238 21.73736328 -4.97329102 22.53722656 -5.09033203 23.36132812 C-5.20489746 24.23208984 -5.31946289 25.10285156 -5.4375 26 C-5.56237793 26.90685547 -5.68725586 27.81371094 -5.81591797 28.74804688 C-7.03609584 37.82093003 -8.03461333 46.92013071 -8.99780273 56.0234375 C-9.11454346 57.11914062 -9.23128418 58.21484375 -9.3515625 59.34375 C-9.45291504 60.31505859 -9.55426758 61.28636719 -9.65869141 62.28710938 C-9.98661536 64.89361222 -10.45030199 67.43201652 -11 70 C-11.33 70 -11.66 70 -12 70 C-12.02710123 67.4374282 -12.04688771 64.87514635 -12.0625 62.3125 C-12.07087891 61.59126953 -12.07925781 60.87003906 -12.08789062 60.12695312 C-12.10558723 56.25139677 -11.77327485 52.77937633 -11 49 C-10.80891235 47.31769882 -10.64311732 45.63237183 -10.5 43.9453125 C-10.37625 42.52798828 -10.37625 42.52798828 -10.25 41.08203125 C-10.12625 39.61830078 -10.12625 39.61830078 -10 38.125 C-8.50768222 20.61358351 -8.50768222 20.61358351 -6.1875 15.1875 C-5.83558594 14.34832031 -5.48367187 13.50914062 -5.12109375 12.64453125 C-4.56615234 11.33548828 -4.56615234 11.33548828 -4 10 C-3.24603576 8.12659056 -2.49587933 6.25164302 -1.75 4.375 C-0.875 2.1875 -0.875 2.1875 0 0 Z " fill="#19354E" transform="translate(53,186)"/>
<path d="M0 0 C0 0.33 0 0.66 0 1 C-1.64574566 1.02688151 -3.29161413 1.04634123 -4.9375 1.0625 C-6.31228516 1.07990234 -6.31228516 1.07990234 -7.71484375 1.09765625 C-10 1 -10 1 -11 0 C-17.65276742 -0.90536653 -24.29512803 -1.28765454 -31 -1.5625 C-32.00675781 -1.6042334 -33.01351562 -1.6459668 -34.05078125 -1.68896484 C-51.50079768 -2.36800773 -68.82520339 -2.50008361 -86.015625 0.98364258 C-90.76002961 1.91582596 -95.16247652 2.12431625 -100 2 C-76.30360201 -11.40948077 -25.28641142 -6.73172922 0 0 Z " fill="#1B3A55" transform="translate(298,76)"/>
<path d="M0 0 C0.495 0.495 0.495 0.495 1 1 C2.84891946 1.23363881 4.70488031 1.41303635 6.5625 1.5625 C7.57441406 1.64628906 8.58632812 1.73007812 9.62890625 1.81640625 C10.80259766 1.90728516 10.80259766 1.90728516 12 2 C12 2.33 12 2.66 12 3 C10.99211426 3.10546143 9.98422852 3.21092285 8.94580078 3.31958008 C5.16136549 3.71815025 1.37838937 4.12937496 -2.40429688 4.54418945 C-4.03316436 4.72107931 -5.66239516 4.89465951 -7.29199219 5.06469727 C-19.32460428 6.31022879 -19.32460428 6.31022879 -31.00927734 9.34204102 C-33.75653628 10.2500448 -36.51421954 10.66751289 -39.375 11.0625 C-43.03418779 11.56937958 -45.75958946 12.23994543 -49 14 C-53.6457747 15.49015415 -58.15964649 16.40730365 -63 17 C-60 15 -60 15 -58 15 C-58 14.34 -58 13.68 -58 13 C-56.32876226 12.5225035 -54.65724417 12.04596786 -52.984375 11.57421875 C-51.20920899 11.06053882 -49.44718809 10.50192826 -47.6875 9.9375 C-43.83056641 8.95692366 -40.19485368 8.58974246 -36.234375 8.34375 C-33.71956003 8.11762334 -33.71956003 8.11762334 -31 6 C-28.91870117 5.4375 -28.91870117 5.4375 -26.54296875 5 C-25.67736328 4.835 -24.81175781 4.67 -23.91992188 4.5 C-23.01822266 4.335 -22.11652344 4.17 -21.1875 4 C-14.34369257 2.73134344 -6.87879117 -0.58961067 0 0 Z " fill="#204466" transform="translate(223,395)"/>
<path d="M0 0 C0.33 0 0.66 0 1 0 C1.02494208 4.39249301 1.04297329 8.78494717 1.05493164 13.17749023 C1.05992328 14.66805745 1.06671894 16.15861986 1.07543945 17.64916992 C1.15713282 31.98395264 1.15713282 31.98395264 0.25610352 38.67651367 C-0.35652895 44.23459106 -0.38857458 49.85192797 -0.5625 55.4375 C-0.60568359 56.69626953 -0.64886719 57.95503906 -0.69335938 59.25195312 C-1.59990437 71.7322342 -1.59990437 71.7322342 0 84 C-0.66 84 -1.32 84 -2 84 C-6.18007446 73.01220983 -3.88489245 60.15113114 -3.125 48.6328125 C-3.03493341 47.21795052 -2.94526017 45.80306345 -2.85595703 44.38815308 C-2.62311573 40.71541995 -2.38503677 37.04304572 -2.14575195 33.37072754 C-1.90120817 29.602828 -1.66177597 25.83460374 -1.421875 22.06640625 C-0.95283422 14.71061598 -0.47824311 7.35519833 0 0 Z " fill="#1F415E" transform="translate(40,256)"/>
<path d="M0 0 C0.99 0.33 1.98 0.66 3 1 C2.06027344 1.88751953 2.06027344 1.88751953 1.1015625 2.79296875 C0.28429687 3.58316406 -0.53296875 4.37335938 -1.375 5.1875 C-2.59316406 6.35345703 -2.59316406 6.35345703 -3.8359375 7.54296875 C-6.02122877 10.0241027 -6.96203525 11.89613439 -8 15 C-8.515625 16.155 -9.03125 17.31 -9.5625 18.5 C-12.21017729 24.94651861 -12.18293794 30.93746912 -12.1875 37.8125 C-12.19974609 38.77220703 -12.21199219 39.73191406 -12.22460938 40.72070312 C-12.23645639 46.50599537 -11.66051663 51.45400571 -10 57 C-9.34 57 -8.68 57 -8 57 C-7.67 58.65 -7.34 60.3 -7 62 C-7.66 61.67 -8.32 61.34 -9 61 C-9 60.34 -9 59.68 -9 59 C-9.66 59 -10.32 59 -11 59 C-14.46570054 50.41108997 -15.18105077 42.58449942 -15.1875 33.375 C-15.19974609 32.446875 -15.21199219 31.51875 -15.22460938 30.5625 C-15.23452453 25.94864761 -15.22872277 22.17555174 -13 18 C-12.34 18 -11.68 18 -11 18 C-11.33 17.01 -11.66 16.02 -12 15 C-11.34 15 -10.68 15 -10 15 C-10 14.01 -10 13.02 -10 12 C-9.34 12 -8.68 12 -8 12 C-8 10.35 -8 8.7 -8 7 C-7.01 6.67 -6.02 6.34 -5 6 C-5 5.34 -5 4.68 -5 4 C-4.0409375 3.8453125 -4.0409375 3.8453125 -3.0625 3.6875 C-2.381875 3.460625 -1.70125 3.23375 -1 3 C-0.67 2.01 -0.34 1.02 0 0 Z " fill="#143753" transform="translate(127,177)"/>
<path d="M0 0 C0 2.33333333 0 4.66666667 0 7 C-0.99 7 -1.98 7 -3 7 C-3.0928125 8.1446875 -3.0928125 8.1446875 -3.1875 9.3125 C-4 12 -4 12 -6.5625 13.8125 C-7.366875 14.204375 -8.17125 14.59625 -9 15 C-9 14.34 -9 13.68 -9 13 C-9.66 13 -10.32 13 -11 13 C-10.67 13.99 -10.34 14.98 -10 16 C-12.07553648 16.5534764 -13.84365964 17 -16 17 C-16.268125 17.78375 -16.53625 18.5675 -16.8125 19.375 C-18 22 -18 22 -21 24 C-21.33 24.99 -21.66 25.98 -22 27 C-22.66 27 -23.32 27 -24 27 C-22.69248561 23.33509512 -21.12195206 20.59072086 -18.6875 17.5625 C-18.06101562 16.78261719 -17.43453125 16.00273437 -16.7890625 15.19921875 C-15.90347656 14.11060547 -15.90347656 14.11060547 -15 13 C-13.7934375 11.453125 -13.7934375 11.453125 -12.5625 9.875 C-3.76086957 0 -3.76086957 0 0 0 Z " fill="#1D4A71" transform="translate(96,127)"/>
<path d="M0 0 C2 3 2 3 2 6 C9.92 6 17.84 6 26 6 C25.67 4.02 25.34 2.04 25 0 C25.5775 0.639375 26.155 1.27875 26.75 1.9375 C28.98062401 3.98223868 30.07436391 4.58205199 33 5 C30.39296934 8.37380439 27.076268 9.38272497 23 10 C19.15717948 9.95794743 15.37888536 9.55704363 11.5625 9.125 C10.54478516 9.02058594 9.52707031 8.91617187 8.47851562 8.80859375 C5.9841687 8.55096167 3.49178677 8.28115082 1 8 C0.67 5.36 0.34 2.72 0 0 Z " fill="#214469" transform="translate(272,251)"/>
<path d="M0 0 C0.598125 0.185625 1.19625 0.37125 1.8125 0.5625 C4.16408762 1.22093687 4.16408762 1.22093687 7 0 C6.67 0.99 6.34 1.98 6 3 C6.99 3.99 7.98 4.98 9 6 C8.27167969 6.103125 7.54335937 6.20625 6.79296875 6.3125 C3.73095466 7.06622655 1.87660428 8.18901972 -0.6875 10 C-5.52376872 13.38132401 -8.4142411 14.18187726 -14.3125 14.1875 C-15.62863281 14.20167969 -16.94476563 14.21585938 -18.30078125 14.23046875 C-22.62417656 13.96111255 -25.57036014 13.28174608 -28.8125 10.375 C-29.204375 9.92125 -29.59625 9.4675 -30 9 C-28.68 8.67 -27.36 8.34 -26 8 C-25.67 8.99 -25.34 9.98 -25 11 C-22.08277452 11.08103404 -19.16780484 11.14051081 -16.25 11.1875 C-15.425 11.21263672 -14.6 11.23777344 -13.75 11.26367188 C-9.1591524 11.31920632 -6.46364274 11.32781361 -3 8 C-0.25 7.3125 -0.25 7.3125 2 7 C1.34 4.69 0.68 2.38 0 0 Z " fill="#1A4061" transform="translate(176,224)"/>
<path d="M0 0 C-0.33 0.99 -0.66 1.98 -1 3 C-8.47211959 5.37284975 -15.78315729 5.23693299 -23.5625 5.125 C-24.76197266 5.11597656 -25.96144531 5.10695312 -27.19726562 5.09765625 C-30.13159782 5.07427512 -33.06582606 5.038411 -36 5 C-36 12.26 -36 19.52 -36 27 C-36.33 27 -36.66 27 -37 27 C-37 19.08 -37 11.16 -37 3 C-34.08994141 2.92652344 -34.08994141 2.92652344 -31.12109375 2.8515625 C-28.55988211 2.77650868 -25.99868487 2.70096198 -23.4375 2.625 C-21.52227539 2.57859375 -21.52227539 2.57859375 -19.56835938 2.53125 C-12.99884583 2.32648594 -6.27926371 0 0 0 Z " fill="#193650" transform="translate(370,230)"/>
<path d="M0 0 C0.66 0 1.32 0 2 0 C2.66 2.31 3.32 4.62 4 7 C3.34 6.67 2.68 6.34 2 6 C2 5.34 2 4.68 2 4 C1.01 4 0.02 4 -1 4 C-0.7525 4.845625 -0.505 5.69125 -0.25 6.5625 C0.03118984 10.42886027 -0.88882212 12.12143554 -2.94921875 15.3359375 C-4.28450617 17.45055624 -5.11688492 19.66605301 -6 22 C-6.66 23.32 -7.32 24.64 -8 26 C-2.39 26.33 3.22 26.66 9 27 C9.66 25.68 10.32 24.36 11 23 C11.33 24.65 11.66 26.3 12 28 C4.74 28 -2.52 28 -10 28 C-9.67 25.69 -9.34 23.38 -9 21 C-8.34 21 -7.68 21 -7 21 C-6.731875 19.88625 -6.46375 18.7725 -6.1875 17.625 C-5.3504344 14.29454751 -4.45429049 10.98634174 -3.5 7.6875 C-3.2628125 6.86636719 -3.025625 6.04523438 -2.78125 5.19921875 C-2 3 -2 3 0 0 Z " fill="#1D4263" transform="translate(248,195)"/>
<path d="M0 0 C2.31 0.33 4.62 0.66 7 1 C6.67 1.99 6.34 2.98 6 4 C7.7015625 3.9690625 7.7015625 3.9690625 9.4375 3.9375 C13 4 13 4 14 5 C16.24634554 5.15289263 18.49863174 5.22197467 20.75 5.25 C21.98234375 5.27578125 23.2146875 5.3015625 24.484375 5.328125 C28.22732713 4.9787828 29.97431176 4.14208017 33 2 C36.58312605 0.25213363 38.2170021 -0.1197034 42 1 C40.60635 1.79550392 39.20996569 2.58621838 37.8125 3.375 C37.03519531 3.81585938 36.25789063 4.25671875 35.45703125 4.7109375 C30.06618305 7.53920444 25.71162551 8.33910238 19.625 8.3125 C18.53058594 8.33666992 18.53058594 8.33666992 17.4140625 8.36132812 C12.22221645 8.3659637 8.64361476 7.32180738 4 5 C4 4.34 4 3.68 4 3 C2.68 2.34 1.36 1.68 0 1 C0 0.67 0 0.34 0 0 Z " fill="#1C3A53" transform="translate(36,447)"/>
<path d="M0 0 C1.66755093 0.08889518 3.33407605 0.19706233 5 0.3125 C5.928125 0.37050781 6.85625 0.42851562 7.8125 0.48828125 C11.01038664 1.00166746 13.77493922 1.97460464 16.77832031 3.16430664 C21.77568159 5.0440833 26.97230282 6.380189 32.10546875 7.83789062 C32.96527344 8.08861328 33.82507813 8.33933594 34.7109375 8.59765625 C35.48743652 8.81945557 36.26393555 9.04125488 37.06396484 9.26977539 C39 10 39 10 41 12 C38.66666667 11.66666667 36.33333333 11.33333333 34 11 C32.865625 10.87625 31.73125 10.7525 30.5625 10.625 C27.23504528 10.04123601 24.3650184 9.06798212 21.234375 7.82421875 C14.36805652 5.29136351 7.10099873 3.74175441 0 2 C0 1.34 0 0.68 0 0 Z " fill="#1D3F5C" transform="translate(369,324)"/>
<path d="M0 0 C1.22257108 0.64018267 2.43776218 1.29645167 3.625 2 C3.625 2.66 3.625 3.32 3.625 4 C4.615 4.33 5.605 4.66 6.625 5 C5.965 5.33 5.305 5.66 4.625 6 C4.295 6.66 3.965 7.32 3.625 8 C3.13 5.525 3.13 5.525 2.625 3 C1.51125 2.690625 0.3975 2.38125 -0.75 2.0625 C-4.375 1 -4.375 1 -6.375 0 C-8.4124763 -0.22858114 -10.45540303 -0.41024278 -12.5 -0.5625 C-14.14355469 -0.68818359 -14.14355469 -0.68818359 -15.8203125 -0.81640625 C-16.66335937 -0.87699219 -17.50640625 -0.93757812 -18.375 -1 C-18.375 -0.34 -18.375 0.32 -18.375 1 C-20.23828125 2.76171875 -20.23828125 2.76171875 -22.6875 4.6875 C-23.88826172 5.65236328 -23.88826172 5.65236328 -25.11328125 6.63671875 C-25.85964844 7.08660156 -26.60601562 7.53648437 -27.375 8 C-28.365 7.67 -29.355 7.34 -30.375 7 C-30.045 6.01 -29.715 5.02 -29.375 4 C-28.715 4 -28.055 4 -27.375 4 C-27.375 3.34 -27.375 2.68 -27.375 2 C-19.00557395 -3.35643267 -9.17527726 -4.05857446 0 0 Z " fill="#1E4161" transform="translate(173.375,191)"/>
<path d="M0 0 C2.39132668 0.03985544 4.78228961 0.11137144 7.171875 0.2109375 C8.39390625 0.23800781 9.6159375 0.26507813 10.875 0.29296875 C13.89240241 0.36368912 16.9062507 0.46234634 19.921875 0.5859375 C19.591875 1.9059375 19.261875 3.2259375 18.921875 4.5859375 C18.921875 3.5959375 18.921875 2.6059375 18.921875 1.5859375 C11.331875 1.9159375 3.741875 2.2459375 -4.078125 2.5859375 C-4.738125 4.2359375 -5.398125 5.8859375 -6.078125 7.5859375 C-7.068125 7.9159375 -8.058125 8.2459375 -9.078125 8.5859375 C-8.995625 9.4521875 -8.913125 10.3184375 -8.828125 11.2109375 C-9.13715827 15.38288669 -10.51176515 17.3402471 -13.078125 20.5859375 C-13.738125 20.9159375 -14.398125 21.2459375 -15.078125 21.5859375 C-14.748125 19.6059375 -14.418125 17.6259375 -14.078125 15.5859375 C-13.418125 15.5859375 -12.758125 15.5859375 -12.078125 15.5859375 C-11.93117187 14.71582031 -11.93117187 14.71582031 -11.78125 13.828125 C-11.63171875 13.04695312 -11.4821875 12.26578125 -11.328125 11.4609375 C-11.18890625 10.69523438 -11.0496875 9.92953125 -10.90625 9.140625 C-8.76529036 2.53596648 -7.08223522 0.23468379 0 0 Z " fill="#041321" transform="translate(243.078125,169.4140625)"/>
<path d="M0 0 C8.25 0 16.5 0 25 0 C25 0.66 25 1.32 25 2 C22.2097333 2.9300889 20.23470458 3.18698769 17.33203125 3.31640625 C16.43935547 3.35830078 15.54667969 3.40019531 14.62695312 3.44335938 C13.23379883 3.50233398 13.23379883 3.50233398 11.8125 3.5625 C10.87212891 3.60568359 9.93175781 3.64886719 8.96289062 3.69335938 C6.64207146 3.79938665 4.32114675 3.90145029 2 4 C1.34 2.68 0.68 1.36 0 0 Z " fill="#1E3D5D" transform="translate(308,257)"/>
<path d="M0 0 C1.65 0 3.3 0 5 0 C5.33 0.99 5.66 1.98 6 3 C8.97 3.495 8.97 3.495 12 4 C12 4.66 12 5.32 12 6 C13.423125 5.938125 13.423125 5.938125 14.875 5.875 C18 6 18 6 20 8 C22.23035297 8.27741245 22.23035297 8.27741245 24.7890625 8.1953125 C26.20058594 8.18564453 26.20058594 8.18564453 27.640625 8.17578125 C28.62546875 8.15902344 29.6103125 8.14226562 30.625 8.125 C31.61757813 8.11597656 32.61015625 8.10695313 33.6328125 8.09765625 C36.08878134 8.07404116 38.54427168 8.04110799 41 8 C37.87112438 11.12887562 34.93348251 11.20333401 30.6875 11.3125 C23.32477203 11.28546428 16.93890935 9.29928357 10 7 C10 6.34 10 5.68 10 5 C8.63875 4.5978125 8.63875 4.5978125 7.25 4.1875 C4.28528037 3.10423706 2.3830246 2.01640543 0 0 Z " fill="#1B3852" transform="translate(416,444)"/>
<path d="M0 0 C0.89203125 0.19464844 1.7840625 0.38929688 2.703125 0.58984375 C3.37859375 0.74582031 4.0540625 0.90179688 4.75 1.0625 C4.75 1.7225 4.75 2.3825 4.75 3.0625 C6.73 3.0625 8.71 3.0625 10.75 3.0625 C10.75 4.0525 10.75 5.0425 10.75 6.0625 C12.173125 5.9696875 12.173125 5.9696875 13.625 5.875 C14.65625 5.936875 15.6875 5.99875 16.75 6.0625 C17.74 7.5475 17.74 7.5475 18.75 9.0625 C13.15732326 8.31248872 7.88834709 6.74383338 2.5 5.125 C1.13488281 4.72764648 1.13488281 4.72764648 -0.2578125 4.32226562 C-1.12664062 4.06251953 -1.99546875 3.80277344 -2.890625 3.53515625 C-3.67985352 3.30062744 -4.46908203 3.06609863 -5.28222656 2.82446289 C-7.25 2.0625 -7.25 2.0625 -9.25 0.0625 C-5.84598052 -1.07482426 -3.47543336 -0.77739957 0 0 Z " fill="#21405B" transform="translate(341.25,408.9375)"/>
<path d="M0 0 C0.33 0 0.66 0 1 0 C1.18955809 7.6812234 0.45059235 15.12479781 -0.4375 22.75 C-0.57220703 23.95527344 -0.70691406 25.16054687 -0.84570312 26.40234375 C-1.40460961 31.31526804 -1.96635539 36.16109447 -3 41 C-3.33 41 -3.66 41 -4 41 C-4.02710123 38.4374282 -4.04688771 35.87514635 -4.0625 33.3125 C-4.07087891 32.59126953 -4.07925781 31.87003906 -4.08789062 31.12695312 C-4.1055508 27.25937497 -3.81706006 23.76823221 -3 20 C-2.74154572 16.49240621 -2.55854152 12.98509909 -2.37890625 9.47265625 C-2.00582208 6.05335911 -1.21001419 3.20874208 0 0 Z " fill="#204360" transform="translate(45,215)"/>
<path d="M0 0 C0.66 0.33 1.32 0.66 2 1 C-0.74035302 4.85679313 -2.6513649 6.32744804 -7 8 C-7.40734375 8.62261719 -7.8146875 9.24523437 -8.234375 9.88671875 C-10.65968189 12.78957501 -13.15140803 13.48961078 -16.6875 14.75 C-17.86699219 15.17796875 -19.04648438 15.6059375 -20.26171875 16.046875 C-21.16535156 16.36140625 -22.06898437 16.6759375 -23 17 C-23.33 16.34 -23.66 15.68 -24 15 C-13.86206897 8 -13.86206897 8 -10 8 C-10 7.34 -10 6.68 -10 6 C-9.36191406 5.65066406 -8.72382812 5.30132812 -8.06640625 4.94140625 C-7.24011719 4.48636719 -6.41382812 4.03132813 -5.5625 3.5625 C-4.73878906 3.11003906 -3.91507813 2.65757813 -3.06640625 2.19140625 C-1.07691202 1.16337603 -1.07691202 1.16337603 0 0 Z " fill="#1B3A58" transform="translate(134,99)"/>
<path d="M0 0 C0.66 0 1.32 0 2 0 C8.49811853 21.22718721 8.49811853 21.22718721 6.04296875 27.41015625 C5.69878906 27.93480469 5.35460937 28.45945313 5 29 C4.01 29 3.02 29 2 29 C2.01047363 28.44127197 2.02094727 27.88254395 2.03173828 27.30688477 C2.07383379 24.7254707 2.09949343 22.14412924 2.125 19.5625 C2.14175781 18.68400391 2.15851563 17.80550781 2.17578125 16.90039062 C2.21967784 10.95240262 1.48881322 5.7618244 0 0 Z " fill="#1C4363" transform="translate(383,185)"/>
<path d="M0 0 C1.16499023 -0.00193359 1.16499023 -0.00193359 2.35351562 -0.00390625 C3.55717773 0.00189453 3.55717773 0.00189453 4.78515625 0.0078125 C5.58373047 0.00394531 6.38230469 0.00007812 7.20507812 -0.00390625 C11.21761191 0.00274252 14.93208293 0.13612111 18.84765625 1.1328125 C18.84765625 1.4628125 18.84765625 1.7928125 18.84765625 2.1328125 C16.30639453 2.32899066 13.76505166 2.51498498 11.22265625 2.6953125 C10.50980469 2.75138672 9.79695313 2.80746094 9.0625 2.86523438 C4.81097521 3.15777048 1.05309278 3.02829189 -3.15234375 2.1328125 C-3.48234375 3.1228125 -3.81234375 4.1128125 -4.15234375 5.1328125 C-4.15234375 4.4728125 -4.15234375 3.8128125 -4.15234375 3.1328125 C-4.755625 3.36097656 -5.35890625 3.58914062 -5.98046875 3.82421875 C-6.7796875 4.11167969 -7.57890625 4.39914063 -8.40234375 4.6953125 C-9.19125 4.98535156 -9.98015625 5.27539062 -10.79296875 5.57421875 C-13.34337827 6.17804087 -14.70556604 5.9802057 -17.15234375 5.1328125 C-15.7375624 4.48285953 -14.32042888 3.83802528 -12.90234375 3.1953125 C-12.1134375 2.83566406 -11.32453125 2.47601563 -10.51171875 2.10546875 C-6.95987851 0.64121673 -3.83880955 0.00617385 0 0 Z " fill="#071726" transform="translate(155.15234375,167.8671875)"/>
<path d="M0 0 C0.33 0.99 0.66 1.98 1 3 C-5.27 3 -11.54 3 -18 3 C-18 11.58 -18 20.16 -18 29 C-18.33 29 -18.66 29 -19 29 C-19.02886338 24.52084672 -19.04675187 20.04171709 -19.0625 15.5625 C-19.07087891 14.28310547 -19.07925781 13.00371094 -19.08789062 11.68554688 C-19.09111328 10.47060547 -19.09433594 9.25566406 -19.09765625 8.00390625 C-19.10289307 6.87799072 -19.10812988 5.7520752 -19.11352539 4.59204102 C-19 2 -19 2 -18 1 C-12.02782246 0.16306855 -6.02428195 -0.13387293 0 0 Z " fill="#031222" transform="translate(351,186)"/>
<path d="M0 0 C0.95310059 0.01047363 1.90620117 0.02094727 2.88818359 0.03173828 C4.43505859 0.04140625 4.43505859 0.04140625 6.01318359 0.05126953 C7.63353516 0.07640625 7.63353516 0.07640625 9.28662109 0.10205078 C10.37458984 0.11107422 11.46255859 0.12009766 12.58349609 0.12939453 C15.27642261 0.15301669 17.96891365 0.18595522 20.66162109 0.22705078 C20.66162109 0.55705078 20.66162109 0.88705078 20.66162109 1.22705078 C19.80165527 1.34765869 19.80165527 1.34765869 18.92431641 1.47070312 C16.25319376 1.84624604 13.58237563 2.22389883 10.91162109 2.60205078 C9.95473389 2.73708008 8.99784668 2.87210937 8.01196289 3.01123047 C1.89565704 3.88269667 -4.18507794 4.84616991 -10.25634766 5.99267578 C-12.33837891 6.22705078 -12.33837891 6.22705078 -14.33837891 5.22705078 C-11.33837891 3.22705078 -11.33837891 3.22705078 -7.77587891 2.72705078 C-4.12309021 2.19573606 -3.391478 0.32930409 0 0 Z " fill="#1C3D59" transform="translate(171.33837890625,299.77294921875)"/>
<path d="M0 0 C-0.65226562 0.25394531 -1.30453125 0.50789063 -1.9765625 0.76953125 C-7.59005916 2.97339035 -7.59005916 2.97339035 -13 5.625 C-18.32084922 8.06372256 -24.28144668 9.84469462 -30 8 C-27.94175571 7.15621025 -25.87820214 6.32536378 -23.8125 5.5 C-22.66394531 5.0359375 -21.51539062 4.571875 -20.33203125 4.09375 C-17.28009923 3.09194348 -15.16884928 2.76129196 -12 3 C-12 2.34 -12 1.68 -12 1 C-3.96428571 -1.27678571 -3.96428571 -1.27678571 0 0 Z " fill="#1A3C57" transform="translate(102,333)"/>
<path d="M0 0 C12.87 0.495 12.87 0.495 26 1 C29 8 29 8 29 12 C29.66 12 30.32 12 31 12 C31.495 15.96 31.495 15.96 32 20 C31.34 18.68 30.68 17.36 30 16 C29.34 16 28.68 16 28 16 C26.78460356 11.30046712 25.80161608 6.80969648 25 2 C16.42 2 7.84 2 -1 2 C-0.67 1.34 -0.34 0.68 0 0 Z " fill="#1C405D" transform="translate(238,168)"/>
<path d="M0 0 C-1.52701044 3.05402088 -3.95157912 3.65869481 -7 5 C-7.99 5 -8.98 5 -10 5 C-10 5.66 -10 6.32 -10 7 C-11.41377782 7.36552803 -12.83120576 7.71695495 -14.25 8.0625 C-15.03890625 8.25972656 -15.8278125 8.45695312 -16.640625 8.66015625 C-19.10394822 9.01497267 -20.65604132 8.76877544 -23 8 C-2.91836735 -1.45918367 -2.91836735 -1.45918367 0 0 Z " fill="#1C4262" transform="translate(71,343)"/>
<path d="M0 0 C0.33 0.66 0.66 1.32 1 2 C0.04882866 3.1725131 -0.91117009 4.33787015 -1.875 5.5 C-2.67550781 6.47453125 -2.67550781 6.47453125 -3.4921875 7.46875 C-3.98976563 7.9740625 -4.48734375 8.479375 -5 9 C-5.66 9 -6.32 9 -7 9 C-7.103125 9.639375 -7.20625 10.27875 -7.3125 10.9375 C-7.539375 11.618125 -7.76625 12.29875 -8 13 C-8.99 13.33 -9.98 13.66 -11 14 C-11.68132451 15.66072849 -12.34742127 17.327767 -13 19 C-13.99 19.66 -14.98 20.32 -16 21 C-16.33 21.99 -16.66 22.98 -17 24 C-17.66 24 -18.32 24 -19 24 C-17.69248561 20.33509512 -16.12195206 17.59072086 -13.6875 14.5625 C-13.06488281 13.78648437 -12.44226563 13.01046875 -11.80078125 12.2109375 C-11.20652344 11.48132813 -10.61226562 10.75171875 -10 10 C-9.53980469 9.41476563 -9.07960938 8.82953125 -8.60546875 8.2265625 C-6.03511806 5.01158417 -3.30154769 2.45257829 0 0 Z " fill="#16334F" transform="translate(91,130)"/>
<path d="M0 0 C1.134375 0.020625 2.26875 0.04125 3.4375 0.0625 C3.4375 0.3925 3.4375 0.7225 3.4375 1.0625 C-1.9210361 2.76748876 -7.2278616 3.6998819 -12.79296875 4.5 C-15.41406696 5.03235281 -17.23444866 5.79489578 -19.5625 7.0625 C-24.2082747 8.55265415 -28.72214649 9.46980365 -33.5625 10.0625 C-30.5625 8.0625 -30.5625 8.0625 -28.5625 8.0625 C-28.5625 7.4025 -28.5625 6.7425 -28.5625 6.0625 C-26.89126226 5.5850035 -25.21974417 5.10846786 -23.546875 4.63671875 C-21.77170899 4.12303882 -20.00968809 3.56442826 -18.25 3 C-14.34000171 2.00593264 -10.61465858 1.6056356 -6.6015625 1.30859375 C-3.36643904 0.91814781 -3.88320703 0.06812644 0 0 Z " fill="#1F3C55" transform="translate(193.5625,401.9375)"/>
<path d="M0 0 C0.33 0 0.66 0 1 0 C1.03758423 1.4226416 1.03758423 1.4226416 1.07592773 2.87402344 C1.1711884 6.40018032 1.27041441 9.92617959 1.37231445 13.45214844 C1.41556707 14.97684386 1.45724885 16.50158469 1.49731445 18.02636719 C1.55525203 20.22084222 1.61887795 22.41509068 1.68359375 24.609375 C1.70030624 25.2886908 1.71701874 25.96800659 1.73423767 26.66790771 C1.83507472 29.90538552 2.03139176 32.89769604 3 36 C2.34 36 1.68 36 1 36 C-3.23138472 24.86125604 -0.85175996 11.71169951 0 0 Z " fill="#1B374E" transform="translate(37,304)"/>
<path d="M0 0 C0.33 0.66 0.66 1.32 1 2 C-0.24652344 1.83628906 -1.49304688 1.67257813 -2.77734375 1.50390625 C-8.3795572 0.88143809 -13.93205157 0.88905802 -19.5625 0.9375 C-21.07553711 0.94426758 -21.07553711 0.94426758 -22.61914062 0.95117188 C-25.07949147 0.96283231 -27.53971239 0.97919622 -30 1 C-21.85286905 -4.43142063 -9.0118818 -2.7967909 0 0 Z " fill="#234766" transform="translate(177,168)"/>
<path d="M0 0 C1 2 1 2 0.43359375 4.42578125 C-1.72076774 10.66920533 -3.43928789 14.3349852 -9 18 C-9.33 17.34 -9.66 16.68 -10 16 C-9.22265625 14.0546875 -9.22265625 14.0546875 -8.0625 11.875 C-7.49208984 10.78832031 -7.49208984 10.78832031 -6.91015625 9.6796875 C-6.60980469 9.12539062 -6.30945313 8.57109375 -6 8 C-5.34 8 -4.68 8 -4 8 C-4 6.68 -4 5.36 -4 4 C-3.34 4 -2.68 4 -2 4 C-1.34 2.68 -0.68 1.36 0 0 Z " fill="#214666" transform="translate(71,154)"/>
<path d="M0 0 C2 2 2 2 2.23046875 3.875 C2.21628906 4.57625 2.20210937 5.2775 2.1875 6 C2.18105469 6.70125 2.17460937 7.4025 2.16796875 8.125 C2 10 2 10 1 12 C-0.98 12 -2.96 12 -5 12 C-4.20590074 8.02950369 -2.89786569 2.89786569 0 0 Z " fill="#194D77" transform="translate(246,208)"/>
<path d="M0 0 C2.88979711 2.88979711 2.30040225 5.03394812 2.3125 9.0625 C2.26678679 16.43023793 1.7164053 22.81792522 -3.1875 28.5625 C-3.785625 29.036875 -4.38375 29.51125 -5 30 C-4.67 28.35 -4.34 26.7 -4 25 C-3.34 25 -2.68 25 -2 25 C-1.93941406 24.38511719 -1.87882812 23.77023438 -1.81640625 23.13671875 C-1.69072266 21.92435547 -1.69072266 21.92435547 -1.5625 20.6875 C-1.48128906 19.88699219 -1.40007812 19.08648437 -1.31640625 18.26171875 C-1 16 -1 16 0 13 C0.06937062 10.77181559 0.08457084 8.54165476 0.0625 6.3125 C0.05347656 5.13300781 0.04445313 3.95351562 0.03515625 2.73828125 C0.02355469 1.83464844 0.01195312 0.93101562 0 0 Z " fill="#02111D" transform="translate(384,192)"/>
<path d="M0 0 C-0.4921875 1.953125 -0.4921875 1.953125 -2 4 C-4.82517725 4.46588547 -7.29079561 4.69615501 -10.125 4.75 C-11.25615234 4.79447266 -11.25615234 4.79447266 -12.41015625 4.83984375 C-14.27285953 4.91057932 -16.13643755 4.95754983 -18 5 C-18 5.66 -18 6.32 -18 7 C-19.98 7 -21.96 7 -24 7 C-21.05591641 5.48025315 -18.0749124 4.17027738 -15 2.9375 C-14.154375 2.59589844 -13.30875 2.25429687 -12.4375 1.90234375 C-8.12247816 0.30495586 -4.6196712 -0.10499253 0 0 Z " fill="#1E3D59" transform="translate(186,81)"/>
<path d="M0 0 C2 3 2 3 2 6 C9.92 6 17.84 6 26 6 C25.67 4.02 25.34 2.04 25 0 C26.32 1.32 27.64 2.64 29 4 C28.67 4.99 28.34 5.98 28 7 C14.635 7.495 14.635 7.495 1 8 C0.67 5.36 0.34 2.72 0 0 Z " fill="#152F47" transform="translate(272,251)"/>
<path d="M0 0 C9.71064582 0.93371594 18.96188561 3.34999227 28 7 C24.78097226 8.08016264 23.19912735 7.95141296 20.125 6.5625 C17.4540718 5.46270604 16.06810407 4.99851948 13.125 5.0625 C8.33324658 4.96666493 4.33821164 2.92047314 0 1 C0 0.67 0 0.34 0 0 Z " fill="#030F1E" transform="translate(374,313)"/>
<path d="M0 0 C2.23404926 2.23404926 2.92100286 3.9496423 4.0625 6.875 C4.40410156 7.73867187 4.74570312 8.60234375 5.09765625 9.4921875 C5.87535983 11.65359745 6.49511162 13.76183502 7 16 C2.25 15.25 2.25 15.25 0 13 C-0.1953125 9.9609375 -0.1953125 9.9609375 -0.125 6.375 C-0.10695313 5.18648437 -0.08890625 3.99796875 -0.0703125 2.7734375 C-0.04710937 1.85820312 -0.02390625 0.94296875 0 0 Z " fill="#23486B" transform="translate(442,176)"/>
<path d="M0 0 C0 0.33 0 0.66 0 1 C-3.60367863 1.48288294 -7.2080251 1.96060024 -10.8125 2.4375 C-11.81732422 2.57220703 -12.82214844 2.70691406 -13.85742188 2.84570312 C-20.56085134 3.72943498 -27.26166593 4.44186864 -34 5 C-33.360625 4.690625 -32.72125 4.38125 -32.0625 4.0625 C-30.06389179 3.1654837 -30.06389179 3.1654837 -29 2 C-27.36681816 1.77214464 -25.72505504 1.60510714 -24.08203125 1.46484375 C-22.57092773 1.33432617 -22.57092773 1.33432617 -21.02929688 1.20117188 C-19.43698242 1.0706543 -19.43698242 1.0706543 -17.8125 0.9375 C-16.77029297 0.84662109 -15.72808594 0.75574219 -14.65429688 0.66210938 C-9.75788855 0.24810918 -4.91901695 -0.12743567 0 0 Z " fill="#051526" transform="translate(196,312)"/>
<path d="M0 0 C6.625 -0.125 6.625 -0.125 10 1 C10 1.66 10 2.32 10 3 C11.423125 2.9690625 11.423125 2.9690625 12.875 2.9375 C16 3 16 3 18 4 C18 4.99 18 5.98 18 7 C18.639375 7.12375 19.27875 7.2475 19.9375 7.375 C20.9584375 7.684375 20.9584375 7.684375 22 8 C22.33 8.66 22.66 9.32 23 10 C19.54422747 8.96326824 16.37596004 7.73021157 13.1875 6.0625 C8.94173055 3.86981055 4.56154987 2.3938069 0 1 C0 0.67 0 0.34 0 0 Z " fill="#1D3D5B" transform="translate(426,328)"/>
<path d="M0 0 C2.33257494 0.33859959 4.66574212 0.6732039 7 1 C7.33 2.32 7.66 3.64 8 5 C3.80716882 4.35155914 -0.26499921 3.48783354 -4.375 2.4375 C-5.43460937 2.16808594 -6.49421875 1.89867187 -7.5859375 1.62109375 C-8.38257813 1.41613281 -9.17921875 1.21117187 -10 1 C-6.16489603 -1.14338787 -4.3173572 -0.93119469 0 0 Z " fill="#234262" transform="translate(392,314)"/>
<path d="M0 0 C5.18827855 0.51882785 10.34452749 1.15431219 15.5 1.9375 C16.5209375 2.09089844 17.541875 2.24429687 18.59375 2.40234375 C19.78484375 2.69818359 19.78484375 2.69818359 21 3 C21.33 3.66 21.66 4.32 22 5 C16.87416389 5.10251672 12.05002222 5.03590199 7 4 C7 3.34 7 2.68 7 2 C4.69 1.67 2.38 1.34 0 1 C0 0.67 0 0.34 0 0 Z " fill="#040F1E" transform="translate(352,308)"/>
<path d="M0 0 C18.375 1.05 18.375 1.05 24 6 C18.81943455 5.20363476 13.73469093 4.09064396 8.625 2.9375 C7.79355469 2.75123047 6.96210938 2.56496094 6.10546875 2.37304688 C4.06998618 1.91681802 2.03494745 1.45860975 0 1 C0 0.67 0 0.34 0 0 Z " fill="#041322" transform="translate(290,74)"/>
<path d="M0 0 C0.99 0.495 0.99 0.495 2 1 C3.7105918 6.43364453 4.3393536 11.70144442 4.78125 17.3671875 C5.05043514 20.60702295 5.50044997 23.78860695 6 27 C5.01 26.67 4.02 26.34 3 26 C2.95101563 24.96101563 2.90203125 23.92203125 2.8515625 22.8515625 C2.44790554 15.08046683 1.87783799 7.58427772 0 0 Z " fill="#142D44" transform="translate(464,390)"/>
<path d="M0 0 C0.99 0.33 1.98 0.66 3 1 C2.73445312 1.50789062 2.46890625 2.01578125 2.1953125 2.5390625 C0.10022511 6.62218902 -1.67619186 10.5873062 -3 15 C-3.66 15 -4.32 15 -5 15 C-5.33 17.31 -5.66 19.62 -6 22 C-6.33 22 -6.66 22 -7 22 C-7.29296875 15.9453125 -7.29296875 15.9453125 -7 14 C-6.01 13.34 -5.02 12.68 -4 12 C-3.27713724 9.91376189 -3.27713724 9.91376189 -2.9375 7.5625 C-2.36575164 4.25724994 -1.92994213 2.89491319 0 0 Z " fill="#1E4260" transform="translate(234,170)"/>
<path d="M0 0 C0.33 0 0.66 0 1 0 C1 1.65 1 3.3 1 5 C6.61 5.33 12.22 5.66 18 6 C18.66 4.68 19.32 3.36 20 2 C20.33 3.65 20.66 5.3 21 7 C13.74 7 6.48 7 -1 7 C-0.67 4.69 -0.34 2.38 0 0 Z " fill="#1B374E" transform="translate(239,216)"/>
<path d="M0 0 C2.33524782 2.25740623 4.18705073 4.2805761 6 7 C6 8.32 6 9.64 6 11 C6.66 11 7.32 11 8 11 C8.33 12.32 8.66 13.64 9 15 C7.13671875 14.765625 7.13671875 14.765625 5 14 C3.76953125 12.109375 3.76953125 12.109375 2.8125 9.75 C2.48378906 8.94175781 2.15507812 8.13351563 1.81640625 7.30078125 C0.95902927 4.88453705 0.32846123 2.54557456 0 0 Z " fill="#1C3853" transform="translate(433,160)"/>
<path d="M0 0 C4.30543116 2.03312027 5.97103375 4.21400405 8.0859375 8.2890625 C9.0326633 10.16851153 9.0326633 10.16851153 10.75 12.3125 C12 14 12 14 12 16 C11.01 16 10.02 16 9 16 C9 15.34 9 14.68 9 14 C8.01 13.67 7.02 13.34 6 13 C5.26953125 10.93359375 5.26953125 10.93359375 4.8125 8.4375 C4.65394531 7.61121094 4.49539063 6.78492188 4.33203125 5.93359375 C4.22246094 5.29550781 4.11289062 4.65742188 4 4 C3.01 4 2.02 4 1 4 C0.67 2.68 0.34 1.36 0 0 Z " fill="#1D3A55" transform="translate(421,144)"/>
<path d="M0 0 C4 1.33333333 8 2.66666667 12 4 C12 4.66 12 5.32 12 6 C12.99 6.33 13.98 6.66 15 7 C12.69 7.66 10.38 8.32 8 9 C8 8.01 8 7.02 8 6 C5.41916521 4.7095826 2.74012041 3.89351752 0 3 C0 2.01 0 1.02 0 0 Z " fill="#1F4361" transform="translate(352,94)"/>
<path d="M0 0 C4.45117288 -0.37638594 7.09640414 0.79374609 11 2.875 C13.91898369 4.4164021 16.72630066 5.8958422 19.8125 7.0703125 C22 8 22 8 23 10 C18.53696352 9.38178053 14.88811453 7.61950078 10.9375 5.5625 C10.32583984 5.24990234 9.71417969 4.93730469 9.08398438 4.61523438 C7.38721927 3.74759124 5.69349982 2.87399931 4 2 C2.66795201 1.33076883 1.33532534 0.66266769 0 0 Z " fill="#1B364F" transform="translate(384,429)"/>
<path d="M0 0 C2.125 0.9375 2.125 0.9375 4 2 C0.74610012 4.16926659 -0.13395957 4.24080049 -3.88671875 4.1953125 C-4.82451172 4.18886719 -5.76230469 4.18242187 -6.72851562 4.17578125 C-8.19321289 4.15064453 -8.19321289 4.15064453 -9.6875 4.125 C-10.67556641 4.11597656 -11.66363281 4.10695312 -12.68164062 4.09765625 C-15.12133765 4.0740843 -17.56054697 4.04118022 -20 4 C-19.67 3.01 -19.34 2.02 -19 1 C-18.67 1.33 -18.34 1.66 -18 2 C-15.30764224 2.23678716 -12.63501844 2.42198025 -9.9375 2.5625 C-8.79958008 2.62727539 -8.79958008 2.62727539 -7.63867188 2.69335938 C-5.75934562 2.79973633 -3.87969756 2.90039934 -2 3 C-2 2.34 -2 1.68 -2 1 C-1.34 0.67 -0.68 0.34 0 0 Z " fill="#1E4668" transform="translate(354,210)"/>
<path d="M0 0 C7.49440349 0.4996269 13.95650263 2.43764478 21 5 C17.03032029 6.50644256 13.3934624 5.57370781 9.375 4.75 C8.694375 4.62753906 8.01375 4.50507813 7.3125 4.37890625 C5.3359375 3.984375 5.3359375 3.984375 2 3 C1.34 2.01 0.68 1.02 0 0 Z " fill="#000A16" transform="translate(313,405)"/>
<path d="M0 0 C7.10431476 -0.35260386 12.52463506 -0.06108161 19 3 C19.66 3.66 20.32 4.32 21 5 C15.99272317 4.48200585 11.77677067 3.6261347 7 2 C4.67305036 1.62468554 2.34023315 1.28082798 0 1 C0 0.67 0 0.34 0 0 Z " fill="#22405D" transform="translate(361,309)"/>
<path d="M0 0 C2.25900493 2.25900493 2.34458029 2.94183075 2.6875 6 C2.77386719 6.70125 2.86023438 7.4025 2.94921875 8.125 C3 10 3 10 2 12 C-2.95 12 -7.9 12 -13 12 C-13 11.67 -13 11.34 -13 11 C-8.38 11 -3.76 11 1 11 C0.67 9.68 0.34 8.36 0 7 C-0.03888349 4.66699067 -0.0448635 2.33290199 0 0 Z " fill="#1F4364" transform="translate(255,210)"/>
<path d="M0 0 C0.33 0 0.66 0 1 0 C1.85976146 3.73480376 2.1632868 7.23197154 2.1875 11.0625 C2.20167969 12.08472656 2.21585937 13.10695313 2.23046875 14.16015625 C2.00158808 16.98043159 1.45275779 18.6055336 0 21 C-0.99440216 16.2710653 -0.96565891 11.90729882 -0.5625 7.125 C-0.51029297 6.43664062 -0.45808594 5.74828125 -0.40429688 5.0390625 C-0.27594902 3.35887242 -0.13887775 1.67935251 0 0 Z " fill="#23435F" transform="translate(469,417)"/>
<path d="M0 0 C0.33 0.99 0.66 1.98 1 3 C-0.4375 5.1875 -0.4375 5.1875 -2 7 C-4.97 6.01 -7.94 5.02 -11 4 C-10.67 3.34 -10.34 2.68 -10 2 C-5.44615385 1.63076923 -5.44615385 1.63076923 -3.1875 3.5 C-2.795625 3.995 -2.40375 4.49 -2 5 C-2 3.68 -2 2.36 -2 1 C-1.34 0.67 -0.68 0.34 0 0 Z " fill="#224564" transform="translate(461,335)"/>
<path d="M0 0 C0.66 0.33 1.32 0.66 2 1 C1.34 5.29 0.68 9.58 0 14 C-0.66 14 -1.32 14 -2 14 C-2.33 15.32 -2.66 16.64 -3 18 C-3.42765417 11.58518742 -1.85743168 6.11404596 0 0 Z " fill="#1B3A56" transform="translate(39,373)"/>
<path d="M0 0 C4.92947689 -0.10150789 9.56533119 0.25757428 14.4375 1 C16.29181641 1.2784375 16.29181641 1.2784375 18.18359375 1.5625 C19.11300781 1.706875 20.04242188 1.85125 21 2 C21 2.33 21 2.66 21 3 C18.62492145 3.02719556 16.25016036 3.04693247 13.875 3.0625 C12.87726563 3.07506836 12.87726563 3.07506836 11.859375 3.08789062 C7.79318646 3.10782292 3.9879908 2.78890161 0 2 C0 1.34 0 0.68 0 0 Z " fill="#20415F" transform="translate(320,315)"/>
<path d="M0 0 C0.99 0.33 1.98 0.66 3 1 C-0.66666667 4.66666667 -4.33333333 8.33333333 -8 12 C-8 10.35 -8 8.7 -8 7 C-7.01 6.67 -6.02 6.34 -5 6 C-5 5.34 -5 4.68 -5 4 C-4.360625 3.896875 -3.72125 3.79375 -3.0625 3.6875 C-2.381875 3.460625 -1.70125 3.23375 -1 3 C-0.67 2.01 -0.34 1.02 0 0 Z " fill="#204362" transform="translate(127,177)"/>
<path d="M0 0 C0 3 0 3 -2 6 C-2.66 6 -3.32 6 -4 6 C-4.309375 6.639375 -4.61875 7.27875 -4.9375 7.9375 C-6 10 -6 10 -7 11 C-8.99958364 11.04080783 -11.00045254 11.04254356 -13 11 C-12.67 10.34 -12.34 9.68 -12 9 C-10.35 9 -8.7 9 -7 9 C-6.95875 8.443125 -6.9175 7.88625 -6.875 7.3125 C-5.53069626 3.75969726 -2.99025811 2.29041047 0 0 Z " fill="#1A3F5B" transform="translate(193,188)"/>
<path d="M0 0 C0.66 0 1.32 0 2 0 C2 0.66 2 1.32 2 2 C2.99 2.33 3.98 2.66 5 3 C5 3.66 5 4.32 5 5 C5.99 5.33 6.98 5.66 8 6 C9.6875 8.0625 9.6875 8.0625 11 10 C10.67 10.66 10.34 11.32 10 12 C9.01 11.67 8.02 11.34 7 11 C6.67 9.35 6.34 7.7 6 6 C5.071875 5.9071875 5.071875 5.9071875 4.125 5.8125 C2 5 2 5 0.75 2.4375 C0.5025 1.633125 0.255 0.82875 0 0 Z " fill="#17334E" transform="translate(410,132)"/>
<path d="M0 0 C-2.49936244 2.49936244 -4.64808008 3.03723753 -8 4.125 C-9.0725 4.47820312 -10.145 4.83140625 -11.25 5.1953125 C-14 6 -14 6 -16 6 C-16 5.34 -16 4.68 -16 4 C-14.68 4 -13.36 4 -12 4 C-12 3.34 -12 2.68 -12 2 C-7.8803623 0.70756464 -4.33168317 -0.26252625 0 0 Z " fill="#010D1B" transform="translate(80,338)"/>
<path d="M0 0 C0.33 0 0.66 0 1 0 C1.48979592 7.34693878 1.48979592 7.34693878 -0.875 10.5 C-3 12 -3 12 -5 12 C-3.86279638 7.53866273 -2.64540851 3.79558613 0 0 Z " fill="#020E1C" transform="translate(227,192)"/>
<path d="M0 0 C3.47093883 1.21951905 5.43570977 2.43570977 8 5 C9.66072849 5.68132451 11.327767 6.34742127 13 7 C14.36365283 7.95824253 15.70794169 8.94721175 17 10 C9.62879547 10 5.23280888 5.8853588 0 1 C0 0.67 0 0.34 0 0 Z " fill="#061426" transform="translate(127,246)"/>
<path d="M0 0 C0.98120464 3.05263664 0.98120464 4.94736336 0 8 C-0.66 8 -1.32 8 -2 8 C-2.66 9.98 -3.32 11.96 -4 14 C-5.31223496 10.06329512 -4.24296256 7.87511856 -3 4 C-2.34 4 -1.68 4 -1 4 C-0.67 2.68 -0.34 1.36 0 0 Z " fill="#112E48" transform="translate(218,210)"/>
<path d="M0 0 C0 0.99 0 1.98 0 3 C-0.66 3 -1.32 3 -2 3 C-2.144375 3.804375 -2.28875 4.60875 -2.4375 5.4375 C-3 8 -3 8 -4 9 C-5.99958364 9.04080783 -8.00045254 9.04254356 -10 9 C-9.34 8.67 -8.68 8.34 -8 8 C-8 7.34 -8 6.68 -8 6 C-7.4225 5.7525 -6.845 5.505 -6.25 5.25 C-3.6997003 3.83316683 -1.98214299 2.12372463 0 0 Z " fill="#1B354D" transform="translate(380,221)"/>
<path d="M0 0 C2.97 0.99 5.94 1.98 9 3 C9 5.64 9 8.28 9 11 C8.01 11 7.02 11 6 11 C6.33 9.68 6.66 8.36 7 7 C6.21625 6.5875 5.4325 6.175 4.625 5.75 C2 4 2 4 0 0 Z " fill="#14324A" transform="translate(188,176)"/>
<path d="M0 0 C0.33 0 0.66 0 1 0 C1 4.62 1 9.24 1 14 C-0.98 14.99 -0.98 14.99 -3 16 C-2.01 10.72 -1.02 5.44 0 0 Z " fill="#1F405A" transform="translate(35,392)"/>
<path d="M0 0 C1.134375 0.020625 2.26875 0.04125 3.4375 0.0625 C0.66170239 2.83829761 -1.86556937 2.92311387 -5.6875 3.6875 C-6.96882813 3.94789063 -8.25015625 4.20828125 -9.5703125 4.4765625 C-10.55773437 4.66992188 -11.54515625 4.86328125 -12.5625 5.0625 C-12.2325 4.0725 -11.9025 3.0825 -11.5625 2.0625 C-10.428125 1.918125 -9.29375 1.77375 -8.125 1.625 C-4.13770521 0.99542714 -4.0324238 0.07074428 0 0 Z " fill="#20405F" transform="translate(124.5625,310.9375)"/>
<path d="M0 0 C3 1 3 1 4.6875 4.1875 C6.01535157 7.5347925 6.26451861 10.38491227 6 14 C2.72329395 9.08494093 1.30866458 5.70203853 0 0 Z " fill="#1D3D5C" transform="translate(282,215)"/>
<path d="M0 0 C0.66 0.33 1.32 0.66 2 1 C-0.37923909 4.83321853 -2.99322444 6.08008671 -7 8 C-8.81554159 9.56102491 -8.81554159 9.56102491 -10 11 C-10.66 10.67 -11.32 10.34 -12 10 C-10.56458334 8.70601853 -9.12658648 7.41489889 -7.6875 6.125 C-6.88699219 5.40570313 -6.08648437 4.68640625 -5.26171875 3.9453125 C-3 2 -3 2 0 0 Z " fill="#1B3952" transform="translate(108,116)"/>
<path d="M0 0 C2.0625 0.4375 2.0625 0.4375 4 1 C2.04414675 2.00484204 0.08523763 3.00373805 -1.875 4 C-2.96554688 4.556875 -4.05609375 5.11375 -5.1796875 5.6875 C-8 7 -8 7 -10 7 C-10 6.01 -10 5.02 -10 4 C-9.36191406 3.79503906 -8.72382812 3.59007812 -8.06640625 3.37890625 C-7.24011719 3.10949219 -6.41382812 2.84007812 -5.5625 2.5625 C-4.73878906 2.29566406 -3.91507812 2.02882813 -3.06640625 1.75390625 C-1.03780412 1.17844506 -1.03780412 1.17844506 0 0 Z " fill="#224365" transform="translate(106,431)"/>
<path d="M0 0 C0.66 0.66 1.32 1.32 2 2 C2.66 1.67 3.32 1.34 4 1 C4 2.32 4 3.64 4 5 C3.360625 5.45375 2.72125 5.9075 2.0625 6.375 C-0.32845509 7.91176363 -0.32845509 7.91176363 -0.75 11.1875 C-0.8325 12.115625 -0.915 13.04375 -1 14 C-1.33 14 -1.66 14 -2 14 C-2.1799928 8.78020872 -1.97094808 4.92737019 0 0 Z " fill="#234A6C" transform="translate(34,402)"/>
<path d="M0 0 C0.66 0.33 1.32 0.66 2 1 C3.87056791 1.2275015 5.74685958 1.40962811 7.625 1.5625 C8.62789062 1.64628906 9.63078125 1.73007812 10.6640625 1.81640625 C11.43492187 1.87699219 12.20578125 1.93757813 13 2 C13 2.33 13 2.66 13 3 C4.585 3.495 4.585 3.495 -4 4 C-4 3.34 -4 2.68 -4 2 C-2.125 0.9375 -2.125 0.9375 0 0 Z " fill="#1E3D59" transform="translate(222,395)"/>
<path d="M0 0 C0.66 0.99 1.32 1.98 2 3 C3.91907273 5.08594862 5.59798564 6.39865709 8 8 C7.67 8.99 7.34 9.98 7 11 C5.68412059 9.87895467 4.37239647 8.75303035 3.0625 7.625 C2.33160156 6.99851563 1.60070312 6.37203125 0.84765625 5.7265625 C-1 4 -1 4 -2 2 C-1.34 2 -0.68 2 0 2 C0 1.34 0 0.68 0 0 Z " fill="#214362" transform="translate(187,228)"/>
<path d="M0 0 C0.66 0.33 1.32 0.66 2 1 C-1.61251516 5.56048012 -4.98797445 9.01665146 -10 12 C-8.52278578 8.54798361 -6.56205999 6.35038064 -3.875 3.75 C-3.15054688 3.04359375 -2.42609375 2.3371875 -1.6796875 1.609375 C-1.12539062 1.07828125 -0.57109375 0.5471875 0 0 Z " fill="#061625" transform="translate(130,177)"/>
<path d="M0 0 C2.31 0 4.62 0 7 0 C4.30932731 1.79378179 1.91421743 2.97313958 -1.0625 4.1875 C-1.94035156 4.55230469 -2.81820312 4.91710937 -3.72265625 5.29296875 C-6 6 -6 6 -8 5 C-7.67 4.34 -7.34 3.68 -7 3 C-4.67843403 2.59270772 -2.3431213 2.25561323 0 2 C0 1.34 0 0.68 0 0 Z " fill="#1F3F5B" transform="translate(150,412)"/>
<path d="M0 0 C4.95 0.33 9.9 0.66 15 1 C15 1.99 15 2.98 15 4 C13.06115111 3.71743908 11.12394039 3.4236207 9.1875 3.125 C8.10855469 2.96257812 7.02960938 2.80015625 5.91796875 2.6328125 C3 2 3 2 0 0 Z " fill="#1E3B56" transform="translate(309,403)"/>
<path d="M0 0 C-1 2 -1 2 -3.14453125 2.88671875 C-4.02496094 3.15097656 -4.90539062 3.41523438 -5.8125 3.6875 C-6.68519531 3.95949219 -7.55789062 4.23148437 -8.45703125 4.51171875 C-11.06873834 5.01319861 -12.51716384 4.86233704 -15 4 C-12.87875034 3.13656176 -10.75286928 2.28449352 -8.625 1.4375 C-6.84996094 0.72400391 -6.84996094 0.72400391 -5.0390625 -0.00390625 C-2 -1 -2 -1 0 0 Z " fill="#17374E" transform="translate(71,343)"/>
<path d="M0 0 C4.29 0.66 8.58 1.32 13 2 C13.33 2.99 13.66 3.98 14 5 C12.03964825 4.55037804 10.08175691 4.09001752 8.125 3.625 C7.03445313 3.36976563 5.94390625 3.11453125 4.8203125 2.8515625 C2 2 2 2 0 0 Z " fill="#020E1C" transform="translate(380,325)"/>
<path d="M0 0 C0.33 1.32 0.66 2.64 1 4 C-5.28571429 6.42857143 -5.28571429 6.42857143 -9 5 C-6.0534615 3.19933758 -3.11198065 1.49836105 0 0 Z " fill="#163A58" transform="translate(190,249)"/>
<path d="M0 0 C2.91375388 1.45687694 3.35777779 3.50753903 4.6875 6.4375 C5.14511719 7.42621094 5.60273438 8.41492188 6.07421875 9.43359375 C6.37972656 10.28050781 6.68523437 11.12742188 7 12 C6.67 12.66 6.34 13.32 6 14 C2.15870308 9.17375515 0.37742233 6.16456476 0 0 Z " fill="#041527" transform="translate(287,229)"/>
<path d="M0 0 C8.38709677 0.96774194 8.38709677 0.96774194 11 3 C12.25 6.125 12.25 6.125 13 9 C12.525625 8.4225 12.05125 7.845 11.5625 7.25 C8.09260912 4.20326654 4.25300723 2.70847299 0 1 C0 0.67 0 0.34 0 0 Z " fill="#183750" transform="translate(366,172)"/>
<path d="M0 0 C0 0.99 0 1.98 0 3 C-1.4800841 2.88637738 -2.95910074 2.75877092 -4.4375 2.625 C-5.26121094 2.55539063 -6.08492188 2.48578125 -6.93359375 2.4140625 C-7.61550781 2.27742187 -8.29742187 2.14078125 -9 2 C-9.33 1.34 -9.66 0.68 -10 0 C-6.30458414 -0.95024979 -3.69541586 -0.95024979 0 0 Z " fill="#1F4868" transform="translate(373,170)"/>
<path d="M0 0 C0.33 0 0.66 0 1 0 C1.34833144 4.87664009 0.41685712 7.77050005 -2 12 C-2.66 12 -3.32 12 -4 12 C-3.52494322 10.18641846 -3.04483958 8.37415821 -2.5625 6.5625 C-2.29566406 5.55316406 -2.02882812 4.54382813 -1.75390625 3.50390625 C-1 1 -1 1 0 0 Z " fill="#1C3A56" transform="translate(229,242)"/>
<path d="M0 0 C0.33 0.66 0.66 1.32 1 2 C-0.1875 5.5625 -0.1875 5.5625 -2 9 C-4.1875 9.9375 -4.1875 9.9375 -6 10 C-6 9.34 -6 8.68 -6 8 C-5.34 8 -4.68 8 -4 8 C-4 6.68 -4 5.36 -4 4 C-3.34 4 -2.68 4 -2 4 C-1.34 2.68 -0.68 1.36 0 0 Z " fill="#1F405C" transform="translate(71,154)"/>
<path d="M0 0 C-2.84655869 1.44277632 -5.71639675 2.81175104 -8.625 4.125 C-9.40101563 4.47820312 -10.17703125 4.83140625 -10.9765625 5.1953125 C-13 6 -13 6 -15 6 C-15 5.34 -15 4.68 -15 4 C-13.33333333 3.33333333 -11.66666667 2.66666667 -10 2 C-9.175 1.62875 -8.35 1.2575 -7.5 0.875 C-4.83747934 -0.05688223 -2.79884788 -0.15993416 0 0 Z " fill="#1C3B55" transform="translate(142,418)"/>
<path d="M0 0 C0.94875 0.04125 1.8975 0.0825 2.875 0.125 C0.32787926 2.12630916 -2.0777375 3.98227656 -5.125 5.125 C-7.375 4.75 -7.375 4.75 -9.125 4.125 C-8.50625 3.83625 -7.8875 3.5475 -7.25 3.25 C-1.20192308 0.04807692 -1.20192308 0.04807692 0 0 Z " fill="#1E3E57" transform="translate(49.125,336.875)"/>
<path d="M0 0 C1.32 1.32 2.64 2.64 4 4 C3.67 4.99 3.34 5.98 3 7 C-0.96 7 -4.92 7 -9 7 C-9 6.67 -9 6.34 -9 6 C-5.7 6 -2.4 6 1 6 C0.67 4.02 0.34 2.04 0 0 Z " fill="#0C253C" transform="translate(297,251)"/>
<path d="M0 0 C2.4375 0.8125 2.4375 0.8125 5 2 C5.33 2.99 5.66 3.98 6 5 C6.66 5.33 7.32 5.66 8 6 C4.33118845 5.29445932 1.29549466 3.72264494 -2 2 C-1.34 1.34 -0.68 0.68 0 0 Z " fill="#1B3952" transform="translate(362,417)"/>
<path d="M0 0 C1.65234375 2.05078125 1.65234375 2.05078125 3 4 C1.3733152 3.71788123 -0.25132896 3.42397625 -1.875 3.125 C-3.23238281 2.88136719 -3.23238281 2.88136719 -4.6171875 2.6328125 C-7 2 -7 2 -9 0 C-5.67621719 -1.1079276 -3.33613123 -1.11204374 0 0 Z " fill="#1B3851" transform="translate(341,409)"/>
<path d="M0 0 C-5.33835539 1.92471317 -10.34979382 3.39891424 -16 4 C-13 2 -13 2 -11 2 C-11 1.34 -11 0.68 -11 0 C-3.375 -1.125 -3.375 -1.125 0 0 Z " fill="#132B42" transform="translate(176,408)"/>
<path d="M0 0 C0 0.66 0 1.32 0 2 C-3.62231166 3.4915401 -7.2344203 4.91216586 -11 6 C-11.66 5.67 -12.32 5.34 -13 5 C-11.35 4.67 -9.7 4.34 -8 4 C-8 3.34 -8 2.68 -8 2 C-2.25 0 -2.25 0 0 0 Z " fill="#1A3854" transform="translate(162,88)"/>
<path d="M0 0 C0 0.66 0 1.32 0 2 C-2.88211302 2.96070434 -4.69850044 3.10581883 -7.6875 3.0625 C-8.89986328 3.04896484 -8.89986328 3.04896484 -10.13671875 3.03515625 C-11.05904297 3.01775391 -11.05904297 3.01775391 -12 3 C-7.86112344 0.24074896 -4.92824278 -0.13689563 0 0 Z " fill="#214462" transform="translate(198,78)"/>
<path d="M0 0 C3.375 0.25 3.375 0.25 7 1 C8.4375 3.0625 8.4375 3.0625 9 5 C5.22454612 3.90931332 2.52956528 3.0916909 0 0 Z " fill="#1F3E5A" transform="translate(407,439)"/>
<path d="M0 0 C-5.445 2.475 -5.445 2.475 -11 5 C-11.33 4.34 -11.66 3.68 -12 3 C-11 1 -11 1 -9.2578125 0.33203125 C-8.55398437 0.16058594 -7.85015625 -0.01085937 -7.125 -0.1875 C-6.42632812 -0.36667969 -5.72765625 -0.54585938 -5.0078125 -0.73046875 C-3 -1 -3 -1 0 0 Z " fill="#20486A" transform="translate(127,424)"/>
<path d="M0 0 C1.8871875 0.061875 1.8871875 0.061875 3.8125 0.125 C3.8125 0.785 3.8125 1.445 3.8125 2.125 C-0.20554691 2.96598656 -3.20553543 3.17904945 -7.1875 2.125 C-4.09861478 0.06574319 -3.47814073 -0.1140374 0 0 Z " fill="#030F1B" transform="translate(204.1875,400.875)"/>
<path d="M0 0 C-1 2 -1 2 -4.3125 3.1875 C-7.75666263 3.94638329 -8.83008446 3.98666245 -12 3 C-10.3789897 2.30314502 -8.75303934 1.61777139 -7.125 0.9375 C-6.22007813 0.55464844 -5.31515625 0.17179687 -4.3828125 -0.22265625 C-2 -1 -2 -1 0 0 Z " fill="#061929" transform="translate(80,327)"/>
<path d="M0 0 C2.64752004 2.57784846 4.94432065 4.91648098 7 8 C5.68 8 4.36 8 3 8 C1.25 6.25 1.25 6.25 0 4 C0 2.68 0 1.36 0 0 Z " fill="#1C3E5B" transform="translate(120,239)"/>
<path d="M0 0 C0.66 0 1.32 0 2 0 C5.42857143 7.28571429 5.42857143 7.28571429 5 12 C2.32522069 9.32522069 1.3535886 6.507025 0 3 C0 2.01 0 1.02 0 0 Z " fill="#1E3D60" transform="translate(272,192)"/>
<path d="M0 0 C0.33 0.66 0.66 1.32 1 2 C0.38125 2.9075 -0.2375 3.815 -0.875 4.75 C-2.44389611 7.14948817 -3.80443821 9.40961612 -5 12 C-5 10.02 -5 8.04 -5 6 C-4.34 6 -3.68 6 -3 6 C-2.87625 5.195625 -2.7525 4.39125 -2.625 3.5625 C-2.41875 2.716875 -2.2125 1.87125 -2 1 C-1.34 0.67 -0.68 0.34 0 0 Z " fill="#051222" transform="translate(62,166)"/>
<path d="M0 0 C1.98 0 3.96 0 6 0 C2.8745041 2.64465038 -0.08788267 3.84414715 -4 5 C-4 4.01 -4 3.02 -4 2 C-2.68 2 -1.36 2 0 2 C0 1.34 0 0.68 0 0 Z " fill="#1C3F5C" transform="translate(138,170)"/>
<path d="M0 0 C0.99 0.33 1.98 0.66 3 1 C0.69 4.3 -1.62 7.6 -4 11 C-4.33 10.34 -4.66 9.68 -5 9 C-4.06553465 6.96855359 -3.06775224 4.96466413 -2 3 C-1.34 3 -0.68 3 0 3 C0 2.01 0 1.02 0 0 Z " fill="#020E19" transform="translate(75,144)"/>
<path d="M0 0 C-3.03525486 2.02350324 -4.19426202 2.32124018 -7.6875 2.625 C-8.49574219 2.69976562 -9.30398437 2.77453125 -10.13671875 2.8515625 C-10.75160156 2.90054687 -11.36648437 2.94953125 -12 3 C-7.91789166 -0.35316042 -5.14839074 -1.65483988 0 0 Z " fill="#030E1F" transform="translate(186,406)"/>
<path d="M0 0 C1 2 1 2 0.5625 4.0625 C-1.36239393 6.44936847 -2.16063287 6.38797994 -5.125 6.75 C-6.40375 6.8325 -7.6825 6.915 -9 7 C-8.01 6.34 -7.02 5.68 -6 5 C-3.96864317 3.36898357 -1.99068127 1.68101974 0 0 Z " fill="#051323" transform="translate(361,208)"/>
<path d="M0 0 C2.5 1.5625 2.5 1.5625 5 4 C5.3125 7.75 5.3125 7.75 5 11 C0 3.5 0 3.5 0 0 Z " fill="#1D4366" transform="translate(289,230)"/>
<path d="M0 0 C0.66 0.33 1.32 0.66 2 1 C1.65120368 4.25543229 0.97866739 5.01873107 -1.5625 7.25 C-2.7690625 8.11625 -2.7690625 8.11625 -4 9 C-4 7.68 -4 6.36 -4 5 C-2.68 4.67 -1.36 4.34 0 4 C0 2.68 0 1.36 0 0 Z " fill="#000B17" transform="translate(194,182)"/>
<path d="M0 0 C-2.95183101 2.95183101 -5.95511947 3.08663988 -10 4 C-10 3.01 -10 2.02 -10 1 C-6.59437148 0.22157062 -3.49234244 -0.09978121 0 0 Z " fill="#1B4160" transform="translate(90,322)"/>
<path d="M0 0 C2 1 2 1 3.0625 3.8125 C3.76526962 6.2019167 4.44016804 8.57406149 5 11 C4.01 11 3.02 11 2 11 C1.34 7.37 0.68 3.74 0 0 Z " fill="#031221" transform="translate(282,217)"/>
<path d="M0 0 C2.34914492 2.34914492 2.73140357 3.95679446 3.625 7.125 C3.88539063 8.03507813 4.14578125 8.94515625 4.4140625 9.8828125 C4.70410156 10.93082031 4.70410156 10.93082031 5 12 C2.69857565 10.21825212 1.19965609 8.83695835 0.51171875 5.953125 C0.27676898 3.9753389 0.13248542 1.98728128 0 0 Z " fill="#23415C" transform="translate(442,176)"/>
<path d="M0 0 C0.99 0 1.98 0 3 0 C3.33 2.64 3.66 5.28 4 8 C3.34 6.68 2.68 5.36 2 4 C1.34 4 0.68 4 0 4 C0 2.68 0 1.36 0 0 Z " fill="#143552" transform="translate(266,180)"/>
<path d="M0 0 C0.99 0 1.98 0 3 0 C1.25 3.875 1.25 3.875 -1 5 C-1.33 5.99 -1.66 6.98 -2 8 C-2.66 8 -3.32 8 -4 8 C-2.87548273 5.0280615 -1.77706209 2.66559313 0 0 Z " fill="#1A3E58" transform="translate(76,146)"/>
<path d="M0 0 C0.66 0 1.32 0 2 0 C0.90931332 3.77545388 0.0916909 6.47043472 -3 9 C-2.67 7.02 -2.34 5.04 -2 3 C-1.34 3 -0.68 3 0 3 C0 2.01 0 1.02 0 0 Z " fill="#234562" transform="translate(467,438)"/>
<path d="M0 0 C-1.625 1.5625 -1.625 1.5625 -4 3 C-7.25 2.6875 -7.25 2.6875 -10 2 C-3.75 -1.125 -3.75 -1.125 0 0 Z " fill="#1E4260" transform="translate(112,330)"/>
<path d="M0 0 C-3.28463659 2.18975773 -6.20696275 2.99806563 -10 4 C-10 3.34 -10 2.68 -10 2 C-6.5980513 -0.09350689 -3.94727588 -0.17942163 0 0 Z " fill="#204563" transform="translate(78,326)"/>
<path d="M0 0 C1.9375 0.5 1.9375 0.5 4 2 C4.68790422 4.69658452 4.81946464 7.2017019 5 10 C3 7 3 7 3 5 C2.34 5 1.68 5 1 5 C0.67 3.35 0.34 1.7 0 0 Z " fill="#030E1C" transform="translate(268,241)"/>
<path d="M0 0 C0.66 0 1.32 0 2 0 C2.66 2.31 3.32 4.62 4 7 C3.34 6.67 2.68 6.34 2 6 C2 5.34 2 4.68 2 4 C0.68 4.33 -0.64 4.66 -2 5 C-1.34 3.35 -0.68 1.7 0 0 Z " fill="#193147" transform="translate(248,195)"/>
<path d="M0 0 C1.6415049 3.2830098 0.51888624 6.42545033 0 10 C-0.99 10 -1.98 10 -3 10 C-2.69201674 8.51988629 -2.378482 7.04092675 -2.0625 5.5625 C-1.88847656 4.73878906 -1.71445312 3.91507813 -1.53515625 3.06640625 C-1 1 -1 1 0 0 Z " fill="#1C3C57" transform="translate(53,186)"/>
<path d="M0 0 C0.99 0 1.98 0 3 0 C2.71125 0.53625 2.4225 1.0725 2.125 1.625 C0.83288192 4.35280484 -0.08558592 7.12612718 -1 10 C-2 7 -2 7 -2 3 C-1.34 3 -0.68 3 0 3 C0 2.01 0 1.02 0 0 Z " fill="#113652" transform="translate(117,189)"/>
<path d="M0 0 C0.66 0 1.32 0 2 0 C2 2.33333333 2 4.66666667 2 7 C1.34 7 0.68 7 0 7 C0 6.34 0 5.68 0 5 C-0.66 5 -1.32 5 -2 5 C-1.125 1.125 -1.125 1.125 0 0 Z " fill="#213F5F" transform="translate(94,127)"/>
<path d="M0 0 C-0.8125 1.9375 -0.8125 1.9375 -2 4 C-2.99 4.33 -3.98 4.66 -5 5 C-5.66 4.34 -6.32 3.68 -7 3 C-2.25 0 -2.25 0 0 0 Z " fill="#030F20" transform="translate(76,449)"/>
<path d="M0 0 C5 2 5 2 10 4 C6.99135897 4.96706319 4.94639752 5.27677226 2 4 C0.75 1.9375 0.75 1.9375 0 0 Z " fill="#020B16" transform="translate(390,432)"/>
<path d="M0 0 C0.33 0.99 0.66 1.98 1 3 C-2.3 3.33 -5.6 3.66 -9 4 C-3 0 -3 0 0 0 Z " fill="#051422" transform="translate(108,433)"/>
<path d="M0 0 C1.98 1.65 3.96 3.3 6 5 C5.01 5.66 4.02 6.32 3 7 C0 2.25 0 2.25 0 0 Z " fill="#030F1D" transform="translate(185,231)"/>
<path d="M0 0 C0.66 0.66 1.32 1.32 2 2 C1.625 4.125 1.625 4.125 1 6 C0.01 5.67 -0.98 5.34 -2 5 C-1.125 1.125 -1.125 1.125 0 0 Z " fill="#124F80" transform="translate(246,208)"/>
</svg>
